M48
; DRILL file {KiCad 7.0.11-7.0.11~ubuntu22.04.1} date 2024. máj. 19., vasárnap, 21:46:37 CEST
; FORMAT={-:-/ absolute / inch / decimal}
; #@! TF.CreationDate,2024-05-19T21:46:37+02:00
; #@! TF.GenerationSoftware,Kicad,Pcbnew,7.0.11-7.0.11~ubuntu22.04.1
; #@! TF.FileFunction,Plated,1,4,PTH
FMAT,2
INCH
; #@! TA.AperFunction,Plated,PTH,ViaDrill
T1C0.0118
%
G90
G05
T1
X-0.2008Y0.5089
X-0.1969Y0.5699
X-0.0984Y0.7264
X-0.0984Y0.6811
X-0.0984Y0.6516
X-0.0984Y0.622
X-0.0984Y0.5571
X-0.0984Y0.4528
X-0.0984Y0.4193
X-0.0984Y0.3917
X-0.0787Y0.748
X-0.0748Y0.374
X-0.0453Y0.374
X-0.0276Y0.748
X-0.0138Y0.376
X-0.0039Y0.4961
X-0.002Y0.565
X0.0Y0.6004
X0.0098Y0.7382
X0.0157Y0.3839
X0.0256Y0.565
X0.0295Y0.5965
X0.0433Y0.7382
X0.0453Y0.3839
X0.0768Y0.7382
X0.1083Y0.7382
X0.1102Y0.5926
X0.1407Y0.312
X0.1417Y0.7362
X0.1417Y0.5787
X0.1417Y0.2776
X0.1417Y0.248
X0.1417Y0.2106
X0.1433Y0.175
X0.1614Y0.1496
X0.1614Y0.1201
X0.1673Y0.6398
X0.1699Y0.1879
X0.1791Y0.7126
X0.1947Y0.2174
X0.2067Y0.685
X0.2067Y0.6496
X0.2303Y0.6654
X0.2323Y0.626
X0.2402Y0.4646
X0.2559Y0.6004
X0.2559Y0.502
X0.2736Y0.622
X0.2815Y0.565
X0.2953Y0.5906
X0.2953Y0.5354
X0.311Y0.5039
X0.313Y0.4665
X0.313Y0.4321
X0.313Y0.3976
X0.313Y0.3632
X0.313Y0.3287
X0.313Y0.2972
X0.313Y0.2628
X0.313Y0.2283
X0.313Y0.1939
X0.313Y0.1594
X0.3858Y0.185
M30
