%TF.GenerationSoftware,KiCad,Pcbnew,7.0.11-7.0.11~ubuntu22.04.1*%
%TF.CreationDate,2024-05-19T21:46:37+02:00*%
%TF.ProjectId,m.2_usd,6d2e325f-7573-4642-9e6b-696361645f70,rev?*%
%TF.SameCoordinates,Original*%
%TF.FileFunction,Drillmap*%
%TF.FilePolarity,Positive*%
%FSLAX45Y45*%
G04 Gerber Fmt 4.5, Leading zero omitted, Abs format (unit mm)*
G04 Created by KiCad (PCBNEW 7.0.11-7.0.11~ubuntu22.04.1) date 2024-05-19 21:46:37*
%MOMM*%
%LPD*%
G01*
G04 APERTURE LIST*
%ADD10C,0.050000*%
%ADD11C,0.200000*%
%ADD12C,0.100000*%
G04 APERTURE END LIST*
D10*
X-1100000Y3000000D02*
X-1100000Y400000D01*
X-1100000Y400000D02*
X-1040000Y400000D01*
X-990000Y0D02*
X-990000Y350000D01*
X-990000Y0D02*
X202500Y0D01*
X-275000Y3000000D02*
X-1100000Y3000000D01*
X202500Y0D02*
X202500Y290000D01*
X275000Y3000000D02*
X1100000Y3000000D01*
X322500Y0D02*
X322500Y290000D01*
X990000Y0D02*
X322500Y0D01*
X990000Y0D02*
X990000Y350000D01*
X1100000Y3000000D02*
X1100000Y400000D01*
X1100000Y400000D02*
X1040000Y400000D01*
X-990000Y350000D02*
G75*
G03*
X-1040000Y400000I-50000J0D01*
G01*
X322500Y290000D02*
G75*
G03*
X202500Y290000I-60000J0D01*
G01*
X-275000Y3000000D02*
G75*
G03*
X275000Y3000000I275000J0D01*
G01*
X1040000Y400000D02*
G75*
G03*
X990000Y350000I0J-50000D01*
G01*
D11*
D12*
X-525000Y1307500D02*
X-495000Y1277500D01*
X-495000Y1307500D02*
X-525000Y1277500D01*
X-515000Y1462500D02*
X-485000Y1432500D01*
X-485000Y1462500D02*
X-515000Y1432500D01*
X-265000Y1860000D02*
X-235000Y1830000D01*
X-235000Y1860000D02*
X-265000Y1830000D01*
X-265000Y1745000D02*
X-235000Y1715000D01*
X-235000Y1745000D02*
X-265000Y1715000D01*
X-265000Y1670000D02*
X-235000Y1640000D01*
X-235000Y1670000D02*
X-265000Y1640000D01*
X-265000Y1595000D02*
X-235000Y1565000D01*
X-235000Y1595000D02*
X-265000Y1565000D01*
X-265000Y1430000D02*
X-235000Y1400000D01*
X-235000Y1430000D02*
X-265000Y1400000D01*
X-265000Y1165000D02*
X-235000Y1135000D01*
X-235000Y1165000D02*
X-265000Y1135000D01*
X-265000Y1080000D02*
X-235000Y1050000D01*
X-235000Y1080000D02*
X-265000Y1050000D01*
X-265000Y1010000D02*
X-235000Y980000D01*
X-235000Y1010000D02*
X-265000Y980000D01*
X-215000Y1915000D02*
X-185000Y1885000D01*
X-185000Y1915000D02*
X-215000Y1885000D01*
X-205000Y965000D02*
X-175000Y935000D01*
X-175000Y965000D02*
X-205000Y935000D01*
X-130000Y965000D02*
X-100000Y935000D01*
X-100000Y965000D02*
X-130000Y935000D01*
X-85000Y1915000D02*
X-55000Y1885000D01*
X-55000Y1915000D02*
X-85000Y1885000D01*
X-50000Y970000D02*
X-20000Y940000D01*
X-20000Y970000D02*
X-50000Y940000D01*
X-25000Y1275000D02*
X5000Y1245000D01*
X5000Y1275000D02*
X-25000Y1245000D01*
X-20000Y1450000D02*
X10000Y1420000D01*
X10000Y1450000D02*
X-20000Y1420000D01*
X-15000Y1540000D02*
X15000Y1510000D01*
X15000Y1540000D02*
X-15000Y1510000D01*
X10000Y1890000D02*
X40000Y1860000D01*
X40000Y1890000D02*
X10000Y1860000D01*
X25000Y990000D02*
X55000Y960000D01*
X55000Y990000D02*
X25000Y960000D01*
X50000Y1450000D02*
X80000Y1420000D01*
X80000Y1450000D02*
X50000Y1420000D01*
X60000Y1530000D02*
X90000Y1500000D01*
X90000Y1530000D02*
X60000Y1500000D01*
X95000Y1890000D02*
X125000Y1860000D01*
X125000Y1890000D02*
X95000Y1860000D01*
X100000Y990000D02*
X130000Y960000D01*
X130000Y990000D02*
X100000Y960000D01*
X180000Y1890000D02*
X210000Y1860000D01*
X210000Y1890000D02*
X180000Y1860000D01*
X260000Y1890000D02*
X290000Y1860000D01*
X290000Y1890000D02*
X260000Y1860000D01*
X265000Y1520167D02*
X295000Y1490167D01*
X295000Y1520167D02*
X265000Y1490167D01*
X342500Y807500D02*
X372500Y777500D01*
X372500Y807500D02*
X342500Y777500D01*
X345000Y1885000D02*
X375000Y1855000D01*
X375000Y1885000D02*
X345000Y1855000D01*
X345000Y1485000D02*
X375000Y1455000D01*
X375000Y1485000D02*
X345000Y1455000D01*
X345000Y720000D02*
X375000Y690000D01*
X375000Y720000D02*
X345000Y690000D01*
X345000Y645000D02*
X375000Y615000D01*
X375000Y645000D02*
X345000Y615000D01*
X345000Y550000D02*
X375000Y520000D01*
X375000Y550000D02*
X345000Y520000D01*
X349065Y459547D02*
X379065Y429547D01*
X379065Y459547D02*
X349065Y429547D01*
X395000Y395000D02*
X425000Y365000D01*
X425000Y395000D02*
X395000Y365000D01*
X395000Y320000D02*
X425000Y290000D01*
X425000Y320000D02*
X395000Y290000D01*
X410000Y1640000D02*
X440000Y1610000D01*
X440000Y1640000D02*
X410000Y1610000D01*
X416577Y492214D02*
X446577Y462214D01*
X446577Y492214D02*
X416577Y462214D01*
X440000Y1825000D02*
X470000Y1795000D01*
X470000Y1825000D02*
X440000Y1795000D01*
X479629Y567129D02*
X509629Y537129D01*
X509629Y567129D02*
X479629Y537129D01*
X510000Y1755000D02*
X540000Y1725000D01*
X540000Y1755000D02*
X510000Y1725000D01*
X510000Y1665000D02*
X540000Y1635000D01*
X540000Y1665000D02*
X510000Y1635000D01*
X570000Y1705000D02*
X600000Y1675000D01*
X600000Y1705000D02*
X570000Y1675000D01*
X575000Y1605000D02*
X605000Y1575000D01*
X605000Y1605000D02*
X575000Y1575000D01*
X595000Y1195000D02*
X625000Y1165000D01*
X625000Y1195000D02*
X595000Y1165000D01*
X635000Y1540000D02*
X665000Y1510000D01*
X665000Y1540000D02*
X635000Y1510000D01*
X635000Y1290000D02*
X665000Y1260000D01*
X665000Y1290000D02*
X635000Y1260000D01*
X680000Y1595000D02*
X710000Y1565000D01*
X710000Y1595000D02*
X680000Y1565000D01*
X700000Y1450000D02*
X730000Y1420000D01*
X730000Y1450000D02*
X700000Y1420000D01*
X735000Y1515000D02*
X765000Y1485000D01*
X765000Y1515000D02*
X735000Y1485000D01*
X735000Y1375000D02*
X765000Y1345000D01*
X765000Y1375000D02*
X735000Y1345000D01*
X775000Y1295000D02*
X805000Y1265000D01*
X805000Y1295000D02*
X775000Y1265000D01*
X780000Y1200000D02*
X810000Y1170000D01*
X810000Y1200000D02*
X780000Y1170000D01*
X780000Y1112500D02*
X810000Y1082500D01*
X810000Y1112500D02*
X780000Y1082500D01*
X780000Y1025000D02*
X810000Y995000D01*
X810000Y1025000D02*
X780000Y995000D01*
X780000Y937500D02*
X810000Y907500D01*
X810000Y937500D02*
X780000Y907500D01*
X780000Y850000D02*
X810000Y820000D01*
X810000Y850000D02*
X780000Y820000D01*
X780000Y770000D02*
X810000Y740000D01*
X810000Y770000D02*
X780000Y740000D01*
X780000Y682500D02*
X810000Y652500D01*
X810000Y682500D02*
X780000Y652500D01*
X780000Y595000D02*
X810000Y565000D01*
X810000Y595000D02*
X780000Y565000D01*
X780000Y507500D02*
X810000Y477500D01*
X810000Y507500D02*
X780000Y477500D01*
X780000Y420000D02*
X810000Y390000D01*
X810000Y420000D02*
X780000Y390000D01*
X965000Y485000D02*
X995000Y455000D01*
X995000Y485000D02*
X965000Y455000D01*
D11*
X-841723Y-313984D02*
X-841723Y-113984D01*
X-841723Y-113984D02*
X-794104Y-113984D01*
X-794104Y-113984D02*
X-765533Y-123508D01*
X-765533Y-123508D02*
X-746485Y-142555D01*
X-746485Y-142555D02*
X-736961Y-161603D01*
X-736961Y-161603D02*
X-727437Y-199698D01*
X-727437Y-199698D02*
X-727437Y-228269D01*
X-727437Y-228269D02*
X-736961Y-266365D01*
X-736961Y-266365D02*
X-746485Y-285412D01*
X-746485Y-285412D02*
X-765533Y-304460D01*
X-765533Y-304460D02*
X-794104Y-313984D01*
X-794104Y-313984D02*
X-841723Y-313984D01*
X-641723Y-313984D02*
X-641723Y-180650D01*
X-641723Y-218746D02*
X-632199Y-199698D01*
X-632199Y-199698D02*
X-622676Y-190174D01*
X-622676Y-190174D02*
X-603628Y-180650D01*
X-603628Y-180650D02*
X-584580Y-180650D01*
X-517914Y-313984D02*
X-517914Y-180650D01*
X-517914Y-113984D02*
X-527437Y-123508D01*
X-527437Y-123508D02*
X-517914Y-133031D01*
X-517914Y-133031D02*
X-508390Y-123508D01*
X-508390Y-123508D02*
X-517914Y-113984D01*
X-517914Y-113984D02*
X-517914Y-133031D01*
X-394104Y-313984D02*
X-413152Y-304460D01*
X-413152Y-304460D02*
X-422675Y-285412D01*
X-422675Y-285412D02*
X-422675Y-113984D01*
X-289342Y-313984D02*
X-308390Y-304460D01*
X-308390Y-304460D02*
X-317914Y-285412D01*
X-317914Y-285412D02*
X-317914Y-113984D01*
X-60771Y-313984D02*
X-60771Y-113984D01*
X-60771Y-113984D02*
X5896Y-256841D01*
X5896Y-256841D02*
X72563Y-113984D01*
X72563Y-113984D02*
X72563Y-313984D01*
X253515Y-313984D02*
X253515Y-209222D01*
X253515Y-209222D02*
X243991Y-190174D01*
X243991Y-190174D02*
X224943Y-180650D01*
X224943Y-180650D02*
X186848Y-180650D01*
X186848Y-180650D02*
X167801Y-190174D01*
X253515Y-304460D02*
X234467Y-313984D01*
X234467Y-313984D02*
X186848Y-313984D01*
X186848Y-313984D02*
X167801Y-304460D01*
X167801Y-304460D02*
X158277Y-285412D01*
X158277Y-285412D02*
X158277Y-266365D01*
X158277Y-266365D02*
X167801Y-247317D01*
X167801Y-247317D02*
X186848Y-237793D01*
X186848Y-237793D02*
X234467Y-237793D01*
X234467Y-237793D02*
X253515Y-228269D01*
X348753Y-180650D02*
X348753Y-380650D01*
X348753Y-190174D02*
X367801Y-180650D01*
X367801Y-180650D02*
X405896Y-180650D01*
X405896Y-180650D02*
X424943Y-190174D01*
X424943Y-190174D02*
X434467Y-199698D01*
X434467Y-199698D02*
X443991Y-218746D01*
X443991Y-218746D02*
X443991Y-275889D01*
X443991Y-275889D02*
X434467Y-294936D01*
X434467Y-294936D02*
X424943Y-304460D01*
X424943Y-304460D02*
X405896Y-313984D01*
X405896Y-313984D02*
X367801Y-313984D01*
X367801Y-313984D02*
X348753Y-304460D01*
X529705Y-294936D02*
X539229Y-304460D01*
X539229Y-304460D02*
X529705Y-313984D01*
X529705Y-313984D02*
X520182Y-304460D01*
X520182Y-304460D02*
X529705Y-294936D01*
X529705Y-294936D02*
X529705Y-313984D01*
X529705Y-190174D02*
X539229Y-199698D01*
X539229Y-199698D02*
X529705Y-209222D01*
X529705Y-209222D02*
X520182Y-199698D01*
X520182Y-199698D02*
X529705Y-190174D01*
X529705Y-190174D02*
X529705Y-209222D01*
D12*
X-1132500Y-627500D02*
X-1102500Y-657500D01*
X-1102500Y-627500D02*
X-1132500Y-657500D01*
D11*
X-803628Y-533984D02*
X-784580Y-533984D01*
X-784580Y-533984D02*
X-765533Y-543508D01*
X-765533Y-543508D02*
X-756009Y-553031D01*
X-756009Y-553031D02*
X-746485Y-572079D01*
X-746485Y-572079D02*
X-736961Y-610174D01*
X-736961Y-610174D02*
X-736961Y-657793D01*
X-736961Y-657793D02*
X-746485Y-695889D01*
X-746485Y-695889D02*
X-756009Y-714936D01*
X-756009Y-714936D02*
X-765533Y-724460D01*
X-765533Y-724460D02*
X-784580Y-733984D01*
X-784580Y-733984D02*
X-803628Y-733984D01*
X-803628Y-733984D02*
X-822675Y-724460D01*
X-822675Y-724460D02*
X-832199Y-714936D01*
X-832199Y-714936D02*
X-841723Y-695889D01*
X-841723Y-695889D02*
X-851247Y-657793D01*
X-851247Y-657793D02*
X-851247Y-610174D01*
X-851247Y-610174D02*
X-841723Y-572079D01*
X-841723Y-572079D02*
X-832199Y-553031D01*
X-832199Y-553031D02*
X-822675Y-543508D01*
X-822675Y-543508D02*
X-803628Y-533984D01*
X-651247Y-714936D02*
X-641723Y-724460D01*
X-641723Y-724460D02*
X-651247Y-733984D01*
X-651247Y-733984D02*
X-660771Y-724460D01*
X-660771Y-724460D02*
X-651247Y-714936D01*
X-651247Y-714936D02*
X-651247Y-733984D01*
X-575056Y-533984D02*
X-451247Y-533984D01*
X-451247Y-533984D02*
X-517914Y-610174D01*
X-517914Y-610174D02*
X-489342Y-610174D01*
X-489342Y-610174D02*
X-470294Y-619698D01*
X-470294Y-619698D02*
X-460771Y-629222D01*
X-460771Y-629222D02*
X-451247Y-648270D01*
X-451247Y-648270D02*
X-451247Y-695889D01*
X-451247Y-695889D02*
X-460771Y-714936D01*
X-460771Y-714936D02*
X-470294Y-724460D01*
X-470294Y-724460D02*
X-489342Y-733984D01*
X-489342Y-733984D02*
X-546485Y-733984D01*
X-546485Y-733984D02*
X-565533Y-724460D01*
X-565533Y-724460D02*
X-575056Y-714936D01*
X-327437Y-533984D02*
X-308390Y-533984D01*
X-308390Y-533984D02*
X-289342Y-543508D01*
X-289342Y-543508D02*
X-279818Y-553031D01*
X-279818Y-553031D02*
X-270295Y-572079D01*
X-270295Y-572079D02*
X-260771Y-610174D01*
X-260771Y-610174D02*
X-260771Y-657793D01*
X-260771Y-657793D02*
X-270295Y-695889D01*
X-270295Y-695889D02*
X-279818Y-714936D01*
X-279818Y-714936D02*
X-289342Y-724460D01*
X-289342Y-724460D02*
X-308390Y-733984D01*
X-308390Y-733984D02*
X-327437Y-733984D01*
X-327437Y-733984D02*
X-346485Y-724460D01*
X-346485Y-724460D02*
X-356009Y-714936D01*
X-356009Y-714936D02*
X-365533Y-695889D01*
X-365533Y-695889D02*
X-375056Y-657793D01*
X-375056Y-657793D02*
X-375056Y-610174D01*
X-375056Y-610174D02*
X-365533Y-572079D01*
X-365533Y-572079D02*
X-356009Y-553031D01*
X-356009Y-553031D02*
X-346485Y-543508D01*
X-346485Y-543508D02*
X-327437Y-533984D01*
X-136961Y-533984D02*
X-117913Y-533984D01*
X-117913Y-533984D02*
X-98866Y-543508D01*
X-98866Y-543508D02*
X-89342Y-553031D01*
X-89342Y-553031D02*
X-79818Y-572079D01*
X-79818Y-572079D02*
X-70295Y-610174D01*
X-70295Y-610174D02*
X-70295Y-657793D01*
X-70295Y-657793D02*
X-79818Y-695889D01*
X-79818Y-695889D02*
X-89342Y-714936D01*
X-89342Y-714936D02*
X-98866Y-724460D01*
X-98866Y-724460D02*
X-117913Y-733984D01*
X-117913Y-733984D02*
X-136961Y-733984D01*
X-136961Y-733984D02*
X-156009Y-724460D01*
X-156009Y-724460D02*
X-165533Y-714936D01*
X-165533Y-714936D02*
X-175056Y-695889D01*
X-175056Y-695889D02*
X-184580Y-657793D01*
X-184580Y-657793D02*
X-184580Y-610174D01*
X-184580Y-610174D02*
X-175056Y-572079D01*
X-175056Y-572079D02*
X-165533Y-553031D01*
X-165533Y-553031D02*
X-156009Y-543508D01*
X-156009Y-543508D02*
X-136961Y-533984D01*
X15420Y-733984D02*
X15420Y-600650D01*
X15420Y-619698D02*
X24943Y-610174D01*
X24943Y-610174D02*
X43991Y-600650D01*
X43991Y-600650D02*
X72563Y-600650D01*
X72563Y-600650D02*
X91610Y-610174D01*
X91610Y-610174D02*
X101134Y-629222D01*
X101134Y-629222D02*
X101134Y-733984D01*
X101134Y-629222D02*
X110658Y-610174D01*
X110658Y-610174D02*
X129705Y-600650D01*
X129705Y-600650D02*
X158277Y-600650D01*
X158277Y-600650D02*
X177324Y-610174D01*
X177324Y-610174D02*
X186848Y-629222D01*
X186848Y-629222D02*
X186848Y-733984D01*
X282086Y-733984D02*
X282086Y-600650D01*
X282086Y-619698D02*
X291610Y-610174D01*
X291610Y-610174D02*
X310658Y-600650D01*
X310658Y-600650D02*
X339229Y-600650D01*
X339229Y-600650D02*
X358277Y-610174D01*
X358277Y-610174D02*
X367801Y-629222D01*
X367801Y-629222D02*
X367801Y-733984D01*
X367801Y-629222D02*
X377324Y-610174D01*
X377324Y-610174D02*
X396372Y-600650D01*
X396372Y-600650D02*
X424943Y-600650D01*
X424943Y-600650D02*
X443991Y-610174D01*
X443991Y-610174D02*
X453515Y-629222D01*
X453515Y-629222D02*
X453515Y-733984D01*
X843991Y-524460D02*
X672563Y-781603D01*
X1101134Y-533984D02*
X1120182Y-533984D01*
X1120182Y-533984D02*
X1139229Y-543508D01*
X1139229Y-543508D02*
X1148753Y-553031D01*
X1148753Y-553031D02*
X1158277Y-572079D01*
X1158277Y-572079D02*
X1167801Y-610174D01*
X1167801Y-610174D02*
X1167801Y-657793D01*
X1167801Y-657793D02*
X1158277Y-695889D01*
X1158277Y-695889D02*
X1148753Y-714936D01*
X1148753Y-714936D02*
X1139229Y-724460D01*
X1139229Y-724460D02*
X1120182Y-733984D01*
X1120182Y-733984D02*
X1101134Y-733984D01*
X1101134Y-733984D02*
X1082087Y-724460D01*
X1082087Y-724460D02*
X1072563Y-714936D01*
X1072563Y-714936D02*
X1063039Y-695889D01*
X1063039Y-695889D02*
X1053515Y-657793D01*
X1053515Y-657793D02*
X1053515Y-610174D01*
X1053515Y-610174D02*
X1063039Y-572079D01*
X1063039Y-572079D02*
X1072563Y-553031D01*
X1072563Y-553031D02*
X1082087Y-543508D01*
X1082087Y-543508D02*
X1101134Y-533984D01*
X1253515Y-714936D02*
X1263039Y-724460D01*
X1263039Y-724460D02*
X1253515Y-733984D01*
X1253515Y-733984D02*
X1243991Y-724460D01*
X1243991Y-724460D02*
X1253515Y-714936D01*
X1253515Y-714936D02*
X1253515Y-733984D01*
X1386848Y-533984D02*
X1405896Y-533984D01*
X1405896Y-533984D02*
X1424944Y-543508D01*
X1424944Y-543508D02*
X1434467Y-553031D01*
X1434467Y-553031D02*
X1443991Y-572079D01*
X1443991Y-572079D02*
X1453515Y-610174D01*
X1453515Y-610174D02*
X1453515Y-657793D01*
X1453515Y-657793D02*
X1443991Y-695889D01*
X1443991Y-695889D02*
X1434467Y-714936D01*
X1434467Y-714936D02*
X1424944Y-724460D01*
X1424944Y-724460D02*
X1405896Y-733984D01*
X1405896Y-733984D02*
X1386848Y-733984D01*
X1386848Y-733984D02*
X1367801Y-724460D01*
X1367801Y-724460D02*
X1358277Y-714936D01*
X1358277Y-714936D02*
X1348753Y-695889D01*
X1348753Y-695889D02*
X1339229Y-657793D01*
X1339229Y-657793D02*
X1339229Y-610174D01*
X1339229Y-610174D02*
X1348753Y-572079D01*
X1348753Y-572079D02*
X1358277Y-553031D01*
X1358277Y-553031D02*
X1367801Y-543508D01*
X1367801Y-543508D02*
X1386848Y-533984D01*
X1643991Y-733984D02*
X1529706Y-733984D01*
X1586848Y-733984D02*
X1586848Y-533984D01*
X1586848Y-533984D02*
X1567801Y-562555D01*
X1567801Y-562555D02*
X1548753Y-581603D01*
X1548753Y-581603D02*
X1529706Y-591127D01*
X1834467Y-733984D02*
X1720182Y-733984D01*
X1777325Y-733984D02*
X1777325Y-533984D01*
X1777325Y-533984D02*
X1758277Y-562555D01*
X1758277Y-562555D02*
X1739229Y-581603D01*
X1739229Y-581603D02*
X1720182Y-591127D01*
X1948753Y-619698D02*
X1929706Y-610174D01*
X1929706Y-610174D02*
X1920182Y-600650D01*
X1920182Y-600650D02*
X1910658Y-581603D01*
X1910658Y-581603D02*
X1910658Y-572079D01*
X1910658Y-572079D02*
X1920182Y-553031D01*
X1920182Y-553031D02*
X1929706Y-543508D01*
X1929706Y-543508D02*
X1948753Y-533984D01*
X1948753Y-533984D02*
X1986848Y-533984D01*
X1986848Y-533984D02*
X2005896Y-543508D01*
X2005896Y-543508D02*
X2015420Y-553031D01*
X2015420Y-553031D02*
X2024944Y-572079D01*
X2024944Y-572079D02*
X2024944Y-581603D01*
X2024944Y-581603D02*
X2015420Y-600650D01*
X2015420Y-600650D02*
X2005896Y-610174D01*
X2005896Y-610174D02*
X1986848Y-619698D01*
X1986848Y-619698D02*
X1948753Y-619698D01*
X1948753Y-619698D02*
X1929706Y-629222D01*
X1929706Y-629222D02*
X1920182Y-638746D01*
X1920182Y-638746D02*
X1910658Y-657793D01*
X1910658Y-657793D02*
X1910658Y-695889D01*
X1910658Y-695889D02*
X1920182Y-714936D01*
X1920182Y-714936D02*
X1929706Y-724460D01*
X1929706Y-724460D02*
X1948753Y-733984D01*
X1948753Y-733984D02*
X1986848Y-733984D01*
X1986848Y-733984D02*
X2005896Y-724460D01*
X2005896Y-724460D02*
X2015420Y-714936D01*
X2015420Y-714936D02*
X2024944Y-695889D01*
X2024944Y-695889D02*
X2024944Y-657793D01*
X2024944Y-657793D02*
X2015420Y-638746D01*
X2015420Y-638746D02*
X2005896Y-629222D01*
X2005896Y-629222D02*
X1986848Y-619698D01*
X2101134Y-533984D02*
X2101134Y-572079D01*
X2177325Y-533984D02*
X2177325Y-572079D01*
X2472563Y-810174D02*
X2463039Y-800650D01*
X2463039Y-800650D02*
X2443991Y-772079D01*
X2443991Y-772079D02*
X2434468Y-753031D01*
X2434468Y-753031D02*
X2424944Y-724460D01*
X2424944Y-724460D02*
X2415420Y-676841D01*
X2415420Y-676841D02*
X2415420Y-638746D01*
X2415420Y-638746D02*
X2424944Y-591127D01*
X2424944Y-591127D02*
X2434468Y-562555D01*
X2434468Y-562555D02*
X2443991Y-543508D01*
X2443991Y-543508D02*
X2463039Y-514936D01*
X2463039Y-514936D02*
X2472563Y-505412D01*
X2634468Y-533984D02*
X2596372Y-533984D01*
X2596372Y-533984D02*
X2577325Y-543508D01*
X2577325Y-543508D02*
X2567801Y-553031D01*
X2567801Y-553031D02*
X2548753Y-581603D01*
X2548753Y-581603D02*
X2539230Y-619698D01*
X2539230Y-619698D02*
X2539230Y-695889D01*
X2539230Y-695889D02*
X2548753Y-714936D01*
X2548753Y-714936D02*
X2558277Y-724460D01*
X2558277Y-724460D02*
X2577325Y-733984D01*
X2577325Y-733984D02*
X2615420Y-733984D01*
X2615420Y-733984D02*
X2634468Y-724460D01*
X2634468Y-724460D02*
X2643991Y-714936D01*
X2643991Y-714936D02*
X2653515Y-695889D01*
X2653515Y-695889D02*
X2653515Y-648270D01*
X2653515Y-648270D02*
X2643991Y-629222D01*
X2643991Y-629222D02*
X2634468Y-619698D01*
X2634468Y-619698D02*
X2615420Y-610174D01*
X2615420Y-610174D02*
X2577325Y-610174D01*
X2577325Y-610174D02*
X2558277Y-619698D01*
X2558277Y-619698D02*
X2548753Y-629222D01*
X2548753Y-629222D02*
X2539230Y-648270D01*
X2720182Y-533984D02*
X2843991Y-533984D01*
X2843991Y-533984D02*
X2777325Y-610174D01*
X2777325Y-610174D02*
X2805896Y-610174D01*
X2805896Y-610174D02*
X2824944Y-619698D01*
X2824944Y-619698D02*
X2834468Y-629222D01*
X2834468Y-629222D02*
X2843991Y-648270D01*
X2843991Y-648270D02*
X2843991Y-695889D01*
X2843991Y-695889D02*
X2834468Y-714936D01*
X2834468Y-714936D02*
X2824944Y-724460D01*
X2824944Y-724460D02*
X2805896Y-733984D01*
X2805896Y-733984D02*
X2748753Y-733984D01*
X2748753Y-733984D02*
X2729706Y-724460D01*
X2729706Y-724460D02*
X2720182Y-714936D01*
X3082087Y-733984D02*
X3082087Y-533984D01*
X3167801Y-733984D02*
X3167801Y-629222D01*
X3167801Y-629222D02*
X3158277Y-610174D01*
X3158277Y-610174D02*
X3139230Y-600650D01*
X3139230Y-600650D02*
X3110658Y-600650D01*
X3110658Y-600650D02*
X3091610Y-610174D01*
X3091610Y-610174D02*
X3082087Y-619698D01*
X3291610Y-733984D02*
X3272563Y-724460D01*
X3272563Y-724460D02*
X3263039Y-714936D01*
X3263039Y-714936D02*
X3253515Y-695889D01*
X3253515Y-695889D02*
X3253515Y-638746D01*
X3253515Y-638746D02*
X3263039Y-619698D01*
X3263039Y-619698D02*
X3272563Y-610174D01*
X3272563Y-610174D02*
X3291610Y-600650D01*
X3291610Y-600650D02*
X3320182Y-600650D01*
X3320182Y-600650D02*
X3339230Y-610174D01*
X3339230Y-610174D02*
X3348753Y-619698D01*
X3348753Y-619698D02*
X3358277Y-638746D01*
X3358277Y-638746D02*
X3358277Y-695889D01*
X3358277Y-695889D02*
X3348753Y-714936D01*
X3348753Y-714936D02*
X3339230Y-724460D01*
X3339230Y-724460D02*
X3320182Y-733984D01*
X3320182Y-733984D02*
X3291610Y-733984D01*
X3472563Y-733984D02*
X3453515Y-724460D01*
X3453515Y-724460D02*
X3443991Y-705412D01*
X3443991Y-705412D02*
X3443991Y-533984D01*
X3624944Y-724460D02*
X3605896Y-733984D01*
X3605896Y-733984D02*
X3567801Y-733984D01*
X3567801Y-733984D02*
X3548753Y-724460D01*
X3548753Y-724460D02*
X3539230Y-705412D01*
X3539230Y-705412D02*
X3539230Y-629222D01*
X3539230Y-629222D02*
X3548753Y-610174D01*
X3548753Y-610174D02*
X3567801Y-600650D01*
X3567801Y-600650D02*
X3605896Y-600650D01*
X3605896Y-600650D02*
X3624944Y-610174D01*
X3624944Y-610174D02*
X3634468Y-629222D01*
X3634468Y-629222D02*
X3634468Y-648270D01*
X3634468Y-648270D02*
X3539230Y-667317D01*
X3710658Y-724460D02*
X3729706Y-733984D01*
X3729706Y-733984D02*
X3767801Y-733984D01*
X3767801Y-733984D02*
X3786849Y-724460D01*
X3786849Y-724460D02*
X3796372Y-705412D01*
X3796372Y-705412D02*
X3796372Y-695889D01*
X3796372Y-695889D02*
X3786849Y-676841D01*
X3786849Y-676841D02*
X3767801Y-667317D01*
X3767801Y-667317D02*
X3739230Y-667317D01*
X3739230Y-667317D02*
X3720182Y-657793D01*
X3720182Y-657793D02*
X3710658Y-638746D01*
X3710658Y-638746D02*
X3710658Y-629222D01*
X3710658Y-629222D02*
X3720182Y-610174D01*
X3720182Y-610174D02*
X3739230Y-600650D01*
X3739230Y-600650D02*
X3767801Y-600650D01*
X3767801Y-600650D02*
X3786849Y-610174D01*
X3863039Y-810174D02*
X3872563Y-800650D01*
X3872563Y-800650D02*
X3891611Y-772079D01*
X3891611Y-772079D02*
X3901134Y-753031D01*
X3901134Y-753031D02*
X3910658Y-724460D01*
X3910658Y-724460D02*
X3920182Y-676841D01*
X3920182Y-676841D02*
X3920182Y-638746D01*
X3920182Y-638746D02*
X3910658Y-591127D01*
X3910658Y-591127D02*
X3901134Y-562555D01*
X3901134Y-562555D02*
X3891611Y-543508D01*
X3891611Y-543508D02*
X3872563Y-514936D01*
X3872563Y-514936D02*
X3863039Y-505412D01*
M02*
