%TF.GenerationSoftware,KiCad,Pcbnew,7.0.11-7.0.11~ubuntu22.04.1*%
%TF.CreationDate,2024-05-19T21:46:35+02:00*%
%TF.ProjectId,m.2_usd,6d2e325f-7573-4642-9e6b-696361645f70,rev?*%
%TF.SameCoordinates,Original*%
%TF.FileFunction,Soldermask,Top*%
%TF.FilePolarity,Negative*%
%FSLAX46Y46*%
G04 Gerber Fmt 4.6, Leading zero omitted, Abs format (unit mm)*
G04 Created by KiCad (PCBNEW 7.0.11-7.0.11~ubuntu22.04.1) date 2024-05-19 21:46:35*
%MOMM*%
%LPD*%
G01*
G04 APERTURE LIST*
%ADD10R,0.350000X2.000000*%
%ADD11R,1.498600X0.812800*%
%ADD12R,2.006600X1.447800*%
G04 APERTURE END LIST*
D10*
%TO.C,J1*%
X9250000Y1550000D03*
X8750000Y1550000D03*
X8250000Y1550000D03*
X7750000Y1550000D03*
X7250000Y1550000D03*
X6750000Y1550000D03*
X6250000Y1550000D03*
X5750000Y1550000D03*
X5250000Y1550000D03*
X4750000Y1550000D03*
X4250000Y1550000D03*
X3750000Y1550000D03*
X1250000Y1550000D03*
X750000Y1550000D03*
X250000Y1550000D03*
X-250000Y1550000D03*
X-750000Y1550000D03*
X-1250000Y1550000D03*
X-1750000Y1550000D03*
X-2250000Y1550000D03*
X-2750000Y1550000D03*
X-3250000Y1550000D03*
X-3750000Y1550000D03*
X-4250000Y1550000D03*
X-4750000Y1550000D03*
X-5250000Y1550000D03*
X-5750000Y1550000D03*
X-6250000Y1550000D03*
X-6750000Y1550000D03*
X-7250000Y1550000D03*
X-7750000Y1550000D03*
X-8250000Y1550000D03*
X-8750000Y1550000D03*
X-9250000Y1550000D03*
%TD*%
D11*
%TO.C,J2*%
X-1249100Y18100001D03*
X-1249100Y17000001D03*
X-1249100Y15900001D03*
X-1249100Y14800000D03*
X-1249100Y13700000D03*
X-1249100Y12600000D03*
X-1249100Y11499999D03*
X-1249100Y10399999D03*
D12*
X-6949101Y21775000D03*
X-6949101Y8025000D03*
X1350900Y21775000D03*
X1350900Y8025000D03*
%TD*%
M02*
