%TF.GenerationSoftware,KiCad,Pcbnew,7.0.11-7.0.11~ubuntu22.04.1*%
%TF.CreationDate,2024-05-19T21:46:35+02:00*%
%TF.ProjectId,m.2_usd,6d2e325f-7573-4642-9e6b-696361645f70,rev?*%
%TF.SameCoordinates,Original*%
%TF.FileFunction,Copper,L4,Bot*%
%TF.FilePolarity,Positive*%
%FSLAX46Y46*%
G04 Gerber Fmt 4.6, Leading zero omitted, Abs format (unit mm)*
G04 Created by KiCad (PCBNEW 7.0.11-7.0.11~ubuntu22.04.1) date 2024-05-19 21:46:35*
%MOMM*%
%LPD*%
G01*
G04 APERTURE LIST*
G04 Aperture macros list*
%AMRoundRect*
0 Rectangle with rounded corners*
0 $1 Rounding radius*
0 $2 $3 $4 $5 $6 $7 $8 $9 X,Y pos of 4 corners*
0 Add a 4 corners polygon primitive as box body*
4,1,4,$2,$3,$4,$5,$6,$7,$8,$9,$2,$3,0*
0 Add four circle primitives for the rounded corners*
1,1,$1+$1,$2,$3*
1,1,$1+$1,$4,$5*
1,1,$1+$1,$6,$7*
1,1,$1+$1,$8,$9*
0 Add four rect primitives between the rounded corners*
20,1,$1+$1,$2,$3,$4,$5,0*
20,1,$1+$1,$4,$5,$6,$7,0*
20,1,$1+$1,$6,$7,$8,$9,0*
20,1,$1+$1,$8,$9,$2,$3,0*%
G04 Aperture macros list end*
%TA.AperFunction,SMDPad,CuDef*%
%ADD10R,0.350000X2.000000*%
%TD*%
%TA.AperFunction,SMDPad,CuDef*%
%ADD11RoundRect,0.225000X-0.250000X0.225000X-0.250000X-0.225000X0.250000X-0.225000X0.250000X0.225000X0*%
%TD*%
%TA.AperFunction,ViaPad*%
%ADD12C,0.600000*%
%TD*%
%TA.AperFunction,ViaPad*%
%ADD13C,0.450000*%
%TD*%
%TA.AperFunction,Conductor*%
%ADD14C,0.350000*%
%TD*%
%TA.AperFunction,Conductor*%
%ADD15C,0.342392*%
%TD*%
G04 APERTURE END LIST*
D10*
%TO.P,J1,2,3.3V*%
%TO.N,+3V3*%
X9000000Y1550000D03*
%TO.P,J1,4,3.3V*%
X8500000Y1550000D03*
%TO.P,J1,6,~{LED_1}*%
%TO.N,unconnected-(J1-~{LED_1}-Pad6)*%
X8000000Y1550000D03*
%TO.P,J1,8,PCM_CLK/I2S_SCK*%
%TO.N,unconnected-(J1-PCM_CLK{slash}I2S_SCK-Pad8)*%
X7500000Y1550000D03*
%TO.P,J1,10,PCM_SYNC/I2S_WS*%
%TO.N,unconnected-(J1-PCM_SYNC{slash}I2S_WS-Pad10)*%
X7000000Y1550000D03*
%TO.P,J1,12,PCM_IN/I2S_SD_IN*%
%TO.N,unconnected-(J1-PCM_IN{slash}I2S_SD_IN-Pad12)*%
X6500000Y1550000D03*
%TO.P,J1,14,PCM_OUT/I2S_SD_OUT*%
%TO.N,unconnected-(J1-PCM_OUT{slash}I2S_SD_OUT-Pad14)*%
X6000000Y1550000D03*
%TO.P,J1,16,~{LED_2}*%
%TO.N,unconnected-(J1-~{LED_2}-Pad16)*%
X5500000Y1550000D03*
%TO.P,J1,18,GND*%
%TO.N,GND*%
X5000000Y1550000D03*
%TO.P,J1,20,~{UART_WAKE}*%
%TO.N,unconnected-(J1-~{UART_WAKE}-Pad20)*%
X4500000Y1550000D03*
%TO.P,J1,22,UART_RXD*%
%TO.N,unconnected-(J1-UART_RXD-Pad22)*%
X4000000Y1550000D03*
%TO.P,J1,32,UART_TXD*%
%TO.N,unconnected-(J1-UART_TXD-Pad32)*%
X1500000Y1550000D03*
%TO.P,J1,34,UART_CTS*%
%TO.N,unconnected-(J1-UART_CTS-Pad34)*%
X1000000Y1550000D03*
%TO.P,J1,36,UART_RTS*%
%TO.N,unconnected-(J1-UART_RTS-Pad36)*%
X500000Y1550000D03*
%TO.P,J1,38,VENDOR_DEFINED*%
%TO.N,unconnected-(J1-VENDOR_DEFINED-Pad38)*%
X0Y1550000D03*
%TO.P,J1,40,VENDOR_DEFINED*%
%TO.N,unconnected-(J1-VENDOR_DEFINED-Pad40)*%
X-500000Y1550000D03*
%TO.P,J1,42,VENDOR_DEFINED*%
%TO.N,unconnected-(J1-VENDOR_DEFINED-Pad42)*%
X-1000000Y1550000D03*
%TO.P,J1,44,COEX3*%
%TO.N,unconnected-(J1-COEX3-Pad44)*%
X-1500000Y1550000D03*
%TO.P,J1,46,COEX2*%
%TO.N,unconnected-(J1-COEX2-Pad46)*%
X-2000000Y1550000D03*
%TO.P,J1,48,COEX1*%
%TO.N,unconnected-(J1-COEX1-Pad48)*%
X-2500000Y1550000D03*
%TO.P,J1,50,SUSCLK*%
%TO.N,unconnected-(J1-SUSCLK-Pad50)*%
X-3000000Y1550000D03*
%TO.P,J1,52,~{PERST0}*%
%TO.N,unconnected-(J1-~{PERST0}-Pad52)*%
X-3500000Y1550000D03*
%TO.P,J1,54,~{W_DISABLE2}*%
%TO.N,unconnected-(J1-~{W_DISABLE2}-Pad54)*%
X-4000000Y1550000D03*
%TO.P,J1,56,~{W_DISABLE1}*%
%TO.N,unconnected-(J1-~{W_DISABLE1}-Pad56)*%
X-4500000Y1550000D03*
%TO.P,J1,58,I2C_DATA*%
%TO.N,unconnected-(J1-I2C_DATA-Pad58)*%
X-5000000Y1550000D03*
%TO.P,J1,60,I2C_CLK*%
%TO.N,unconnected-(J1-I2C_CLK-Pad60)*%
X-5500000Y1550000D03*
%TO.P,J1,62,~{ALERT}*%
%TO.N,unconnected-(J1-~{ALERT}-Pad62)*%
X-6000000Y1550000D03*
%TO.P,J1,64,RESERVED*%
%TO.N,unconnected-(J1-RESERVED-Pad64)*%
X-6500000Y1550000D03*
%TO.P,J1,66,UIM_SWP/~{PERST1}*%
%TO.N,unconnected-(J1-UIM_SWP{slash}~{PERST1}-Pad66)*%
X-7000000Y1550000D03*
%TO.P,J1,68,UIM_POWER_SNK/~{CLKREQ1}*%
%TO.N,unconnected-(J1-UIM_POWER_SNK{slash}~{CLKREQ1}-Pad68)*%
X-7500000Y1550000D03*
%TO.P,J1,70,UIM_POWER_SRC/GPIO1/~{PEWAKE1}*%
%TO.N,unconnected-(J1-UIM_POWER_SRC{slash}GPIO1{slash}~{PEWAKE1}-Pad70)*%
X-8000000Y1550000D03*
%TO.P,J1,72,3.3V*%
%TO.N,+3V3*%
X-8500000Y1550000D03*
%TO.P,J1,74,3.3V*%
X-9000000Y1550000D03*
%TD*%
D11*
%TO.P,C2,1*%
%TO.N,+3V3*%
X-3700000Y14475000D03*
%TO.P,C2,2*%
%TO.N,GND*%
X-3700000Y12925000D03*
%TD*%
%TO.P,C1,1*%
%TO.N,+3V3*%
X-6210000Y14475000D03*
%TO.P,C1,2*%
%TO.N,GND*%
X-6210000Y12925000D03*
%TD*%
D12*
%TO.N,GND*%
X3575000Y7925000D03*
X-2500000Y10650000D03*
X-1150000Y9500000D03*
X-350000Y9550000D03*
X-2500000Y14150000D03*
X2750000Y18750000D03*
X1100000Y18750000D03*
X-2500000Y18450000D03*
X-700000Y19000000D03*
X4100000Y3800000D03*
X4100000Y3050000D03*
X7950000Y6675000D03*
X7950000Y4925000D03*
X7950000Y5800000D03*
X7950000Y7550000D03*
X7950000Y4050000D03*
X7950000Y10975000D03*
X650000Y14350000D03*
X-50000Y14350000D03*
X0Y15250000D03*
X6950000Y15800000D03*
X5900000Y15900000D03*
X7150000Y14350000D03*
X-100000Y12600000D03*
X3600000Y14700000D03*
X6100000Y11800000D03*
X9800000Y4700000D03*
X400000Y9750000D03*
X3600000Y5350000D03*
X750000Y15150000D03*
X2800000Y15051669D03*
X3640648Y4445475D03*
X7500000Y15000000D03*
X7900000Y12800000D03*
X-2500000Y15800000D03*
X-1900000Y9500000D03*
X250000Y18750000D03*
X3600000Y7050000D03*
X7950000Y8350000D03*
X1950000Y18750000D03*
X-2500000Y9950000D03*
X7950000Y11850000D03*
X-2500000Y16550000D03*
X4550000Y18100000D03*
X-2500000Y11500000D03*
X7500000Y13600000D03*
X1150000Y9750000D03*
X-2000000Y19000000D03*
X-2500000Y17300000D03*
X3600000Y18700000D03*
X7950000Y10100000D03*
X3600000Y6300000D03*
X5250000Y17400000D03*
X5850000Y16900000D03*
X-5100000Y12925000D03*
X7950000Y9225000D03*
%TO.N,+3V3*%
X-5000000Y14475000D03*
D13*
%TO.N,CMD*%
X6500000Y12750000D03*
X6500000Y15250000D03*
%TO.N,DAT2*%
X5250000Y16500000D03*
D12*
X4946294Y5521294D03*
%TO.N,DAT3*%
X4315775Y4772136D03*
D13*
X4250000Y16250000D03*
%TD*%
D14*
%TO.N,+3V3*%
X-9000000Y1550000D02*
X-9000000Y13000000D01*
X-9000000Y13000000D02*
X-7525000Y14475000D01*
X-7525000Y14475000D02*
X-6210000Y14475000D01*
X-9000000Y1550000D02*
X-8500000Y1550000D01*
D15*
%TO.N,DAT3*%
X4250000Y16250000D02*
X4315775Y16184225D01*
X4315775Y16184225D02*
X4315775Y4772136D01*
%TO.N,GND*%
X3640648Y4445475D02*
X4100000Y3986123D01*
X4100000Y3986123D02*
X4100000Y3800000D01*
X3640648Y4445475D02*
X3368802Y4173629D01*
X3368802Y4173629D02*
X-4073629Y4173629D01*
X4100000Y3800000D02*
X3750000Y3500000D01*
X4100000Y3050000D02*
X4392392Y3500000D01*
%TO.N,+3V3*%
X-3700000Y19500000D02*
X-3700000Y14475000D01*
X6100000Y20000000D02*
X-3200000Y20000000D01*
X-3200000Y20000000D02*
X-3700000Y19500000D01*
X8707107Y17392893D02*
X6100000Y20000000D01*
X8999990Y16685786D02*
G75*
G03*
X8707107Y17392893I-999990J14D01*
G01*
X9000000Y3100000D02*
X9000000Y16685786D01*
%TO.N,CMD*%
X6500000Y12750000D02*
X6500000Y15250000D01*
%TO.N,GND*%
X-4100000Y3400000D02*
X-4200000Y3300000D01*
X4392392Y3500000D02*
X5000000Y2892392D01*
X-4073629Y4173629D02*
X-4100000Y4147258D01*
X-5100000Y12925000D02*
X-3700000Y12925000D01*
X-4100000Y4147258D02*
X-4100000Y3400000D01*
X5000000Y2892392D02*
X5000000Y1550000D01*
X3750000Y3500000D02*
X4100000Y3050000D01*
X-5100000Y12925000D02*
X-5100000Y5200000D01*
X-4200000Y3300000D02*
X-4750000Y3300000D01*
X-6210000Y12925000D02*
X-5100000Y12925000D01*
X-5100000Y5200000D02*
X-4073629Y4173629D01*
%TO.N,+3V3*%
X-3700000Y14475000D02*
X-5000000Y14475000D01*
X9000000Y1550000D02*
X9000000Y3100000D01*
X9000000Y1550000D02*
X8546196Y1550000D01*
X-5000000Y14475000D02*
X-6210000Y14475000D01*
D14*
%TO.N,DAT2*%
X4946294Y5521294D02*
X4957107Y5532107D01*
X5250000Y6239214D02*
X5250000Y16500000D01*
X4957114Y5532100D02*
G75*
G03*
X5250000Y6239214I-707114J707100D01*
G01*
%TD*%
%TA.AperFunction,Conductor*%
%TO.N,GND*%
G36*
X-2910001Y29836774D02*
G01*
X-2897548Y29810916D01*
X-2864024Y29513383D01*
X-2791532Y29195773D01*
X-2683935Y28888278D01*
X-2683932Y28888273D01*
X-2683932Y28888271D01*
X-2542588Y28594769D01*
X-2542579Y28594753D01*
X-2369266Y28318926D01*
X-2369263Y28318922D01*
X-2369261Y28318919D01*
X-2166143Y28064217D01*
X-1935783Y27833857D01*
X-1681081Y27630739D01*
X-1681073Y27630733D01*
X-1405246Y27457420D01*
X-1405230Y27457411D01*
X-1111728Y27316067D01*
X-1111722Y27316065D01*
X-804227Y27208468D01*
X-545638Y27149447D01*
X-486618Y27135976D01*
X-432662Y27129896D01*
X-162889Y27099500D01*
X-162884Y27099500D01*
X162884Y27099500D01*
X162889Y27099500D01*
X432662Y27129896D01*
X486618Y27135976D01*
X545638Y27149447D01*
X804227Y27208468D01*
X1111722Y27316065D01*
X1111728Y27316067D01*
X1405230Y27457411D01*
X1405246Y27457420D01*
X1681073Y27630733D01*
X1681081Y27630739D01*
X1935783Y27833857D01*
X2166143Y28064217D01*
X2369261Y28318919D01*
X2369263Y28318922D01*
X2369266Y28318926D01*
X2542579Y28594753D01*
X2542588Y28594769D01*
X2683932Y28888271D01*
X2683932Y28888273D01*
X2683935Y28888278D01*
X2791532Y29195773D01*
X2864024Y29513383D01*
X2897548Y29810915D01*
X2913634Y29840021D01*
X2940725Y29849500D01*
X10806050Y29849500D01*
X10836774Y29836774D01*
X10849500Y29806050D01*
X10849500Y4193950D01*
X10836774Y4163226D01*
X10806050Y4150500D01*
X10434351Y4150500D01*
X10400000Y4150500D01*
X10326706Y4150500D01*
X10183794Y4117881D01*
X10183792Y4117880D01*
X10051721Y4054278D01*
X10008504Y4019813D01*
X9937117Y3962883D01*
X9937114Y3962879D01*
X9845721Y3848278D01*
X9782119Y3716207D01*
X9749500Y3573294D01*
X9749500Y193950D01*
X9736774Y163226D01*
X9706050Y150500D01*
X5587317Y150500D01*
X5556593Y163226D01*
X5543867Y193950D01*
X5552534Y219989D01*
X5618350Y307907D01*
X5641970Y371234D01*
X5664631Y395573D01*
X5682681Y399500D01*
X5689822Y399500D01*
X5737919Y409068D01*
X5738113Y408091D01*
X5761887Y408091D01*
X5762081Y409068D01*
X5810178Y399500D01*
X5810180Y399500D01*
X6189822Y399500D01*
X6237919Y409068D01*
X6238113Y408091D01*
X6261887Y408091D01*
X6262081Y409068D01*
X6310178Y399500D01*
X6310180Y399500D01*
X6689822Y399500D01*
X6737919Y409068D01*
X6738113Y408091D01*
X6761887Y408091D01*
X6762081Y409068D01*
X6810178Y399500D01*
X6810180Y399500D01*
X7189822Y399500D01*
X7237919Y409068D01*
X7238113Y408091D01*
X7261887Y408091D01*
X7262081Y409068D01*
X7310178Y399500D01*
X7310180Y399500D01*
X7689822Y399500D01*
X7737919Y409068D01*
X7738113Y408091D01*
X7761887Y408091D01*
X7762081Y409068D01*
X7810178Y399500D01*
X7810180Y399500D01*
X8189822Y399500D01*
X8237919Y409068D01*
X8238113Y408091D01*
X8261887Y408091D01*
X8262081Y409068D01*
X8310178Y399500D01*
X8310180Y399500D01*
X8689822Y399500D01*
X8737919Y409068D01*
X8738113Y408091D01*
X8761887Y408091D01*
X8762081Y409068D01*
X8810178Y399500D01*
X8810180Y399500D01*
X9189822Y399500D01*
X9233721Y408232D01*
X9233722Y408233D01*
X9266984Y430457D01*
X9283503Y441495D01*
X9283504Y441496D01*
X9294922Y458585D01*
X9316767Y491278D01*
X9325500Y535177D01*
X9325500Y2564820D01*
X9322531Y2579744D01*
X9321696Y2588222D01*
X9321696Y16715815D01*
X9321686Y16716032D01*
X9321686Y16738342D01*
X9321687Y16772410D01*
X9304168Y16905492D01*
X9299076Y16944179D01*
X9299075Y16944180D01*
X9299075Y16944185D01*
X9254235Y17111538D01*
X9187934Y17271607D01*
X9101308Y17421653D01*
X8995837Y17559108D01*
X8956375Y17598570D01*
X8956367Y17598580D01*
X8954483Y17600464D01*
X8934583Y17620364D01*
X8898555Y17656393D01*
X8898553Y17656393D01*
X8894982Y17659965D01*
X8894976Y17659969D01*
X6338737Y20216207D01*
X6336187Y20218992D01*
X6309972Y20250235D01*
X6274647Y20270629D01*
X6271461Y20272660D01*
X6262153Y20279177D01*
X6238052Y20296054D01*
X6229693Y20298293D01*
X6219219Y20302630D01*
X6211724Y20306959D01*
X6171551Y20314042D01*
X6167865Y20314859D01*
X6128470Y20325415D01*
X6088902Y20321953D01*
X6087841Y20321861D01*
X6084055Y20321696D01*
X-3184051Y20321696D01*
X-3187838Y20321861D01*
X-3228470Y20325416D01*
X-3267868Y20314858D01*
X-3271555Y20314041D01*
X-3311724Y20306959D01*
X-3319214Y20302633D01*
X-3329695Y20298292D01*
X-3338052Y20296054D01*
X-3370611Y20273254D01*
X-3371469Y20272654D01*
X-3374637Y20270634D01*
X-3409972Y20250235D01*
X-3436187Y20218992D01*
X-3438734Y20216211D01*
X-3916207Y19738737D01*
X-3918990Y19736188D01*
X-3950235Y19709972D01*
X-3970629Y19674647D01*
X-3972660Y19671461D01*
X-3996054Y19638052D01*
X-3998293Y19629693D01*
X-4002630Y19619219D01*
X-4006959Y19611724D01*
X-4014041Y19571558D01*
X-4014859Y19567865D01*
X-4025415Y19528470D01*
X-4021953Y19488902D01*
X-4021861Y19487841D01*
X-4021696Y19484055D01*
X-4021696Y15107824D01*
X-4034422Y15077100D01*
X-4055588Y15066484D01*
X-4055397Y15065864D01*
X-4058622Y15064867D01*
X-4058623Y15064866D01*
X-4058625Y15064866D01*
X-4171211Y15009826D01*
X-4259826Y14921211D01*
X-4275571Y14889004D01*
X-4308786Y14821063D01*
X-4333713Y14799050D01*
X-4347821Y14796696D01*
X-4662810Y14796696D01*
X-4693534Y14809422D01*
X-4695646Y14811691D01*
X-4697422Y14813741D01*
X-4701951Y14818967D01*
X-4759673Y14856063D01*
X-4810927Y14889002D01*
X-4810929Y14889002D01*
X-4810931Y14889004D01*
X-4920610Y14921208D01*
X-4935227Y14925500D01*
X-4935228Y14925500D01*
X-5064772Y14925500D01*
X-5064773Y14925500D01*
X-5079390Y14921208D01*
X-5189069Y14889004D01*
X-5298049Y14818967D01*
X-5303456Y14812726D01*
X-5304354Y14811691D01*
X-5334092Y14796807D01*
X-5337190Y14796696D01*
X-5562179Y14796696D01*
X-5592903Y14809422D01*
X-5601214Y14821063D01*
X-5650172Y14921208D01*
X-5650174Y14921211D01*
X-5738789Y15009826D01*
X-5738791Y15009827D01*
X-5851373Y15064865D01*
X-5851375Y15064866D01*
X-5888302Y15070246D01*
X-5924355Y15075499D01*
X-5924359Y15075499D01*
X-5924364Y15075500D01*
X-6495636Y15075500D01*
X-6495641Y15075499D01*
X-6495644Y15075499D01*
X-6515691Y15072578D01*
X-6568625Y15064866D01*
X-6681211Y15009826D01*
X-6769826Y14921211D01*
X-6785571Y14889004D01*
X-6816926Y14824867D01*
X-6841853Y14802854D01*
X-6855961Y14800500D01*
X-7508885Y14800500D01*
X-7512672Y14800665D01*
X-7553807Y14804264D01*
X-7593707Y14793571D01*
X-7597376Y14792758D01*
X-7638045Y14785588D01*
X-7638047Y14785586D01*
X-7638049Y14785586D01*
X-7645681Y14781179D01*
X-7656158Y14776837D01*
X-7664684Y14774554D01*
X-7698511Y14750867D01*
X-7701685Y14748845D01*
X-7737455Y14728194D01*
X-7763994Y14696565D01*
X-7766544Y14693780D01*
X-9218786Y13241538D01*
X-9221559Y13238998D01*
X-9240520Y13223088D01*
X-9253190Y13212459D01*
X-9253191Y13212456D01*
X-9253194Y13212455D01*
X-9273845Y13176685D01*
X-9275867Y13173511D01*
X-9299554Y13139684D01*
X-9301837Y13131158D01*
X-9306179Y13120681D01*
X-9310588Y13113045D01*
X-9317758Y13072376D01*
X-9318571Y13068707D01*
X-9329264Y13028807D01*
X-9325665Y12987672D01*
X-9325500Y12983885D01*
X-9325500Y535177D01*
X-9316767Y491278D01*
X-9283504Y441496D01*
X-9283503Y441495D01*
X-9266984Y430457D01*
X-9233722Y408233D01*
X-9233721Y408232D01*
X-9189822Y399500D01*
X-9189820Y399500D01*
X-8810178Y399500D01*
X-8762081Y409068D01*
X-8761887Y408091D01*
X-8738113Y408091D01*
X-8737919Y409068D01*
X-8689822Y399500D01*
X-8689820Y399500D01*
X-8310178Y399500D01*
X-8262081Y409068D01*
X-8261887Y408091D01*
X-8238113Y408091D01*
X-8237919Y409068D01*
X-8189822Y399500D01*
X-8189820Y399500D01*
X-7810178Y399500D01*
X-7762081Y409068D01*
X-7761887Y408091D01*
X-7738113Y408091D01*
X-7737919Y409068D01*
X-7689822Y399500D01*
X-7689820Y399500D01*
X-7310178Y399500D01*
X-7262081Y409068D01*
X-7261887Y408091D01*
X-7238113Y408091D01*
X-7237919Y409068D01*
X-7189822Y399500D01*
X-7189820Y399500D01*
X-6810178Y399500D01*
X-6762081Y409068D01*
X-6761887Y408091D01*
X-6738113Y408091D01*
X-6737919Y409068D01*
X-6689822Y399500D01*
X-6689820Y399500D01*
X-6310178Y399500D01*
X-6262081Y409068D01*
X-6261887Y408091D01*
X-6238113Y408091D01*
X-6237919Y409068D01*
X-6189822Y399500D01*
X-6189820Y399500D01*
X-5810178Y399500D01*
X-5762081Y409068D01*
X-5761887Y408091D01*
X-5738113Y408091D01*
X-5737919Y409068D01*
X-5689822Y399500D01*
X-5689820Y399500D01*
X-5310178Y399500D01*
X-5262081Y409068D01*
X-5261887Y408091D01*
X-5238113Y408091D01*
X-5237919Y409068D01*
X-5189822Y399500D01*
X-5189820Y399500D01*
X-4810178Y399500D01*
X-4762081Y409068D01*
X-4761887Y408091D01*
X-4738113Y408091D01*
X-4737919Y409068D01*
X-4689822Y399500D01*
X-4689820Y399500D01*
X-4310178Y399500D01*
X-4262081Y409068D01*
X-4261887Y408091D01*
X-4238113Y408091D01*
X-4237919Y409068D01*
X-4189822Y399500D01*
X-4189820Y399500D01*
X-3810178Y399500D01*
X-3762081Y409068D01*
X-3761887Y408091D01*
X-3738113Y408091D01*
X-3737919Y409068D01*
X-3689822Y399500D01*
X-3689820Y399500D01*
X-3310178Y399500D01*
X-3262081Y409068D01*
X-3261887Y408091D01*
X-3238113Y408091D01*
X-3237919Y409068D01*
X-3189822Y399500D01*
X-3189820Y399500D01*
X-2810178Y399500D01*
X-2762081Y409068D01*
X-2761887Y408091D01*
X-2738113Y408091D01*
X-2737919Y409068D01*
X-2689822Y399500D01*
X-2689820Y399500D01*
X-2310178Y399500D01*
X-2262081Y409068D01*
X-2261887Y408091D01*
X-2238113Y408091D01*
X-2237919Y409068D01*
X-2189822Y399500D01*
X-2189820Y399500D01*
X-1810178Y399500D01*
X-1762081Y409068D01*
X-1761887Y408091D01*
X-1738113Y408091D01*
X-1737919Y409068D01*
X-1689822Y399500D01*
X-1689820Y399500D01*
X-1310178Y399500D01*
X-1262081Y409068D01*
X-1261887Y408091D01*
X-1238113Y408091D01*
X-1237919Y409068D01*
X-1189822Y399500D01*
X-1189820Y399500D01*
X-810178Y399500D01*
X-762081Y409068D01*
X-761887Y408091D01*
X-738113Y408091D01*
X-737919Y409068D01*
X-689822Y399500D01*
X-689820Y399500D01*
X-310178Y399500D01*
X-262081Y409068D01*
X-261887Y408091D01*
X-238113Y408091D01*
X-237919Y409068D01*
X-189822Y399500D01*
X-189820Y399500D01*
X189822Y399500D01*
X237919Y409068D01*
X238113Y408091D01*
X261887Y408091D01*
X262081Y409068D01*
X310178Y399500D01*
X310180Y399500D01*
X689822Y399500D01*
X737919Y409068D01*
X738113Y408091D01*
X761887Y408091D01*
X762081Y409068D01*
X810178Y399500D01*
X810180Y399500D01*
X1189822Y399500D01*
X1237919Y409068D01*
X1238113Y408091D01*
X1261887Y408091D01*
X1262081Y409068D01*
X1310178Y399500D01*
X1310180Y399500D01*
X1689822Y399500D01*
X1733721Y408232D01*
X1733722Y408233D01*
X1766984Y430457D01*
X1783503Y441495D01*
X1783505Y441497D01*
X1794923Y458585D01*
X1822573Y477060D01*
X1855190Y470572D01*
X1873665Y442922D01*
X1874500Y434445D01*
X1874500Y193950D01*
X1861774Y163226D01*
X1831050Y150500D01*
X-9706050Y150500D01*
X-9736774Y163226D01*
X-9749500Y193950D01*
X-9749500Y3573294D01*
X-9782119Y3716207D01*
X-9845721Y3848278D01*
X-9937114Y3962879D01*
X-9937117Y3962883D01*
X-10051722Y4054278D01*
X-10051721Y4054278D01*
X-10183792Y4117880D01*
X-10183794Y4117881D01*
X-10326706Y4150500D01*
X-10806050Y4150500D01*
X-10836774Y4163226D01*
X-10849500Y4193950D01*
X-10849500Y29806050D01*
X-10836774Y29836774D01*
X-10806050Y29849500D01*
X-2940725Y29849500D01*
X-2910001Y29836774D01*
G37*
%TD.AperFunction*%
%TA.AperFunction,Conductor*%
G36*
X5979475Y19665578D02*
G01*
X8443602Y17201450D01*
X8443603Y17201450D01*
X8443603Y17201449D01*
X8478121Y17166930D01*
X8480985Y17163771D01*
X8561270Y17065942D01*
X8566002Y17058860D01*
X8624649Y16949135D01*
X8627908Y16941265D01*
X8664019Y16822217D01*
X8665681Y16813863D01*
X8678094Y16687814D01*
X8678303Y16683556D01*
X8678303Y16632184D01*
X8678304Y16632166D01*
X8678304Y2743950D01*
X8665578Y2713226D01*
X8634854Y2700500D01*
X8310178Y2700500D01*
X8262081Y2690932D01*
X8261886Y2691911D01*
X8238113Y2691911D01*
X8237919Y2690932D01*
X8189822Y2700500D01*
X8189820Y2700500D01*
X7810180Y2700500D01*
X7810178Y2700500D01*
X7762081Y2690932D01*
X7761886Y2691911D01*
X7738113Y2691911D01*
X7737919Y2690932D01*
X7689822Y2700500D01*
X7689820Y2700500D01*
X7310180Y2700500D01*
X7310178Y2700500D01*
X7262081Y2690932D01*
X7261886Y2691911D01*
X7238113Y2691911D01*
X7237919Y2690932D01*
X7189822Y2700500D01*
X7189820Y2700500D01*
X6810180Y2700500D01*
X6810178Y2700500D01*
X6762081Y2690932D01*
X6761886Y2691911D01*
X6738113Y2691911D01*
X6737919Y2690932D01*
X6689822Y2700500D01*
X6689820Y2700500D01*
X6310180Y2700500D01*
X6310178Y2700500D01*
X6262081Y2690932D01*
X6261886Y2691911D01*
X6238113Y2691911D01*
X6237919Y2690932D01*
X6189822Y2700500D01*
X6189820Y2700500D01*
X5810180Y2700500D01*
X5810178Y2700500D01*
X5762081Y2690932D01*
X5761886Y2691911D01*
X5738113Y2691911D01*
X5737919Y2690932D01*
X5689822Y2700500D01*
X5689820Y2700500D01*
X5682681Y2700500D01*
X5651957Y2713226D01*
X5641970Y2728766D01*
X5618350Y2792092D01*
X5532191Y2907185D01*
X5532185Y2907191D01*
X5417092Y2993350D01*
X5282370Y3043599D01*
X5222826Y3050000D01*
X5175000Y3050000D01*
X5175000Y2571612D01*
X5174541Y2566958D01*
X5174709Y2566942D01*
X5174500Y2564822D01*
X5174500Y1418450D01*
X5161774Y1387726D01*
X5131050Y1375000D01*
X4868950Y1375000D01*
X4838226Y1387726D01*
X4825500Y1418450D01*
X4825500Y2564822D01*
X4825291Y2566942D01*
X4825458Y2566958D01*
X4825000Y2571612D01*
X4825000Y3050000D01*
X4777174Y3050000D01*
X4717629Y3043599D01*
X4582907Y2993350D01*
X4467814Y2907191D01*
X4467808Y2907185D01*
X4381649Y2792092D01*
X4358030Y2728766D01*
X4335369Y2704427D01*
X4317319Y2700500D01*
X4310178Y2700500D01*
X4262081Y2690932D01*
X4261886Y2691911D01*
X4238113Y2691911D01*
X4237919Y2690932D01*
X4189822Y2700500D01*
X4189820Y2700500D01*
X3810180Y2700500D01*
X3810178Y2700500D01*
X3767002Y2691911D01*
X3766278Y2691767D01*
X3716496Y2658504D01*
X3683233Y2608722D01*
X3683233Y2608721D01*
X3683232Y2608721D01*
X3674500Y2564822D01*
X3674500Y535177D01*
X3683232Y491278D01*
X3716495Y441496D01*
X3716496Y441495D01*
X3766278Y408233D01*
X3766278Y408232D01*
X3810178Y399500D01*
X3810180Y399500D01*
X4189822Y399500D01*
X4237919Y409068D01*
X4238113Y408091D01*
X4261887Y408091D01*
X4262081Y409068D01*
X4310178Y399500D01*
X4317319Y399500D01*
X4348043Y386774D01*
X4358030Y371234D01*
X4381649Y307907D01*
X4447466Y219989D01*
X4455691Y187767D01*
X4438722Y159167D01*
X4412683Y150500D01*
X3418950Y150500D01*
X3388226Y163226D01*
X3375500Y193950D01*
X3375500Y2978878D01*
X3375500Y2978881D01*
X3342700Y3133195D01*
X3342697Y3133201D01*
X3342698Y3133201D01*
X3278534Y3277312D01*
X3278532Y3277317D01*
X3185802Y3404949D01*
X3068563Y3510512D01*
X2931937Y3589392D01*
X2781897Y3638143D01*
X2625000Y3654634D01*
X2483024Y3639711D01*
X2468102Y3638143D01*
X2468101Y3638142D01*
X2318063Y3589392D01*
X2181437Y3510512D01*
X2064198Y3404949D01*
X1971469Y3277318D01*
X1971465Y3277312D01*
X1907302Y3133201D01*
X1907301Y3133198D01*
X1907300Y3133195D01*
X1874500Y2978881D01*
X1874500Y2978878D01*
X1874500Y2665554D01*
X1861774Y2634830D01*
X1831050Y2622104D01*
X1800326Y2634830D01*
X1794922Y2641415D01*
X1783504Y2658504D01*
X1733722Y2691767D01*
X1719088Y2694678D01*
X1689822Y2700500D01*
X1689820Y2700500D01*
X1310180Y2700500D01*
X1310178Y2700500D01*
X1262081Y2690932D01*
X1261886Y2691911D01*
X1238113Y2691911D01*
X1237919Y2690932D01*
X1189822Y2700500D01*
X1189820Y2700500D01*
X810180Y2700500D01*
X810178Y2700500D01*
X762081Y2690932D01*
X761886Y2691911D01*
X738113Y2691911D01*
X737919Y2690932D01*
X689822Y2700500D01*
X689820Y2700500D01*
X310180Y2700500D01*
X310178Y2700500D01*
X262081Y2690932D01*
X261886Y2691911D01*
X238113Y2691911D01*
X237919Y2690932D01*
X189822Y2700500D01*
X189820Y2700500D01*
X-189820Y2700500D01*
X-189822Y2700500D01*
X-237919Y2690932D01*
X-238113Y2691911D01*
X-261886Y2691911D01*
X-262081Y2690932D01*
X-310178Y2700500D01*
X-310180Y2700500D01*
X-689820Y2700500D01*
X-689822Y2700500D01*
X-737919Y2690932D01*
X-738113Y2691911D01*
X-761886Y2691911D01*
X-762081Y2690932D01*
X-810178Y2700500D01*
X-810180Y2700500D01*
X-1189820Y2700500D01*
X-1189822Y2700500D01*
X-1237919Y2690932D01*
X-1238113Y2691911D01*
X-1261886Y2691911D01*
X-1262081Y2690932D01*
X-1310178Y2700500D01*
X-1310180Y2700500D01*
X-1689820Y2700500D01*
X-1689822Y2700500D01*
X-1737919Y2690932D01*
X-1738113Y2691911D01*
X-1761886Y2691911D01*
X-1762081Y2690932D01*
X-1810178Y2700500D01*
X-1810180Y2700500D01*
X-2189820Y2700500D01*
X-2189822Y2700500D01*
X-2237919Y2690932D01*
X-2238113Y2691911D01*
X-2261886Y2691911D01*
X-2262081Y2690932D01*
X-2310178Y2700500D01*
X-2310180Y2700500D01*
X-2689820Y2700500D01*
X-2689822Y2700500D01*
X-2737919Y2690932D01*
X-2738113Y2691911D01*
X-2761886Y2691911D01*
X-2762081Y2690932D01*
X-2810178Y2700500D01*
X-2810180Y2700500D01*
X-3189820Y2700500D01*
X-3189822Y2700500D01*
X-3237919Y2690932D01*
X-3238113Y2691911D01*
X-3261886Y2691911D01*
X-3262081Y2690932D01*
X-3310178Y2700500D01*
X-3310180Y2700500D01*
X-3689820Y2700500D01*
X-3689822Y2700500D01*
X-3737919Y2690932D01*
X-3738113Y2691911D01*
X-3761886Y2691911D01*
X-3762081Y2690932D01*
X-3810178Y2700500D01*
X-3810180Y2700500D01*
X-4189820Y2700500D01*
X-4189822Y2700500D01*
X-4237919Y2690932D01*
X-4238113Y2691911D01*
X-4261886Y2691911D01*
X-4262081Y2690932D01*
X-4310178Y2700500D01*
X-4310180Y2700500D01*
X-4689820Y2700500D01*
X-4689822Y2700500D01*
X-4737919Y2690932D01*
X-4738113Y2691911D01*
X-4761886Y2691911D01*
X-4762081Y2690932D01*
X-4810178Y2700500D01*
X-4810180Y2700500D01*
X-5189820Y2700500D01*
X-5189822Y2700500D01*
X-5237919Y2690932D01*
X-5238113Y2691911D01*
X-5261886Y2691911D01*
X-5262081Y2690932D01*
X-5310178Y2700500D01*
X-5310180Y2700500D01*
X-5689820Y2700500D01*
X-5689822Y2700500D01*
X-5737919Y2690932D01*
X-5738113Y2691911D01*
X-5761886Y2691911D01*
X-5762081Y2690932D01*
X-5810178Y2700500D01*
X-5810180Y2700500D01*
X-6189820Y2700500D01*
X-6189822Y2700500D01*
X-6237919Y2690932D01*
X-6238113Y2691911D01*
X-6261886Y2691911D01*
X-6262081Y2690932D01*
X-6310178Y2700500D01*
X-6310180Y2700500D01*
X-6689820Y2700500D01*
X-6689822Y2700500D01*
X-6737919Y2690932D01*
X-6738113Y2691911D01*
X-6761886Y2691911D01*
X-6762081Y2690932D01*
X-6810178Y2700500D01*
X-6810180Y2700500D01*
X-7189820Y2700500D01*
X-7189822Y2700500D01*
X-7237919Y2690932D01*
X-7238113Y2691911D01*
X-7261886Y2691911D01*
X-7262081Y2690932D01*
X-7310178Y2700500D01*
X-7310180Y2700500D01*
X-7689820Y2700500D01*
X-7689822Y2700500D01*
X-7737919Y2690932D01*
X-7738113Y2691911D01*
X-7761886Y2691911D01*
X-7762081Y2690932D01*
X-7810178Y2700500D01*
X-7810180Y2700500D01*
X-8189820Y2700500D01*
X-8189822Y2700500D01*
X-8237919Y2690932D01*
X-8238113Y2691911D01*
X-8261886Y2691911D01*
X-8262081Y2690932D01*
X-8310178Y2700500D01*
X-8310180Y2700500D01*
X-8631050Y2700500D01*
X-8661774Y2713226D01*
X-8674500Y2743950D01*
X-8674500Y12675000D01*
X-7184999Y12675000D01*
X-7184999Y12651689D01*
X-7174856Y12552399D01*
X-7174855Y12552392D01*
X-7121546Y12391514D01*
X-7032573Y12247269D01*
X-6912730Y12127426D01*
X-6768484Y12038453D01*
X-6768486Y12038453D01*
X-6607607Y11985144D01*
X-6607601Y11985143D01*
X-6508311Y11975000D01*
X-6460000Y11975000D01*
X-6460000Y12675000D01*
X-5960000Y12675000D01*
X-5960000Y11975000D01*
X-5911689Y11975000D01*
X-5812399Y11985143D01*
X-5812392Y11985144D01*
X-5651514Y12038453D01*
X-5507269Y12127426D01*
X-5387426Y12247269D01*
X-5298453Y12391514D01*
X-5245144Y12552392D01*
X-5245143Y12552398D01*
X-5235000Y12651688D01*
X-5235000Y12675000D01*
X-4674999Y12675000D01*
X-4674999Y12651689D01*
X-4664856Y12552399D01*
X-4664855Y12552392D01*
X-4611546Y12391514D01*
X-4522573Y12247269D01*
X-4402730Y12127426D01*
X-4258484Y12038453D01*
X-4258486Y12038453D01*
X-4097607Y11985144D01*
X-4097601Y11985143D01*
X-3998311Y11975000D01*
X-3950000Y11975000D01*
X-3950000Y12675000D01*
X-3450000Y12675000D01*
X-3450000Y11975000D01*
X-3401689Y11975000D01*
X-3302399Y11985143D01*
X-3302392Y11985144D01*
X-3141514Y12038453D01*
X-2997269Y12127426D01*
X-2877426Y12247269D01*
X-2788453Y12391514D01*
X-2735144Y12552392D01*
X-2735143Y12552398D01*
X-2725000Y12651688D01*
X-2725000Y12675000D01*
X-3450000Y12675000D01*
X-3950000Y12675000D01*
X-4674999Y12675000D01*
X-5235000Y12675000D01*
X-5960000Y12675000D01*
X-6460000Y12675000D01*
X-7184999Y12675000D01*
X-8674500Y12675000D01*
X-8674500Y12847176D01*
X-8661774Y12877900D01*
X-7402900Y14136774D01*
X-7372176Y14149500D01*
X-6855961Y14149500D01*
X-6825237Y14136774D01*
X-6816926Y14125133D01*
X-6769827Y14028791D01*
X-6769826Y14028789D01*
X-6681210Y13940173D01*
X-6655336Y13927524D01*
X-6633324Y13902597D01*
X-6635385Y13869405D01*
X-6660312Y13847393D01*
X-6660753Y13847244D01*
X-6768485Y13811546D01*
X-6912730Y13722573D01*
X-7032573Y13602730D01*
X-7121546Y13458485D01*
X-7174855Y13297607D01*
X-7174856Y13297601D01*
X-7185000Y13198311D01*
X-7185000Y13175000D01*
X-5235001Y13175000D01*
X-5235001Y13198310D01*
X-5245143Y13297600D01*
X-5245144Y13297607D01*
X-5298453Y13458485D01*
X-5387426Y13602730D01*
X-5507269Y13722573D01*
X-5651515Y13811546D01*
X-5651513Y13811546D01*
X-5759246Y13847244D01*
X-5784407Y13868988D01*
X-5786824Y13902156D01*
X-5765080Y13927317D01*
X-5764663Y13927524D01*
X-5738789Y13940173D01*
X-5738789Y13940174D01*
X-5650172Y14028791D01*
X-5601214Y14128937D01*
X-5576287Y14150950D01*
X-5562179Y14153304D01*
X-5337190Y14153304D01*
X-5306466Y14140578D01*
X-5304354Y14138309D01*
X-5298049Y14131033D01*
X-5288868Y14125133D01*
X-5189072Y14060997D01*
X-5189064Y14060994D01*
X-5064773Y14024500D01*
X-5064772Y14024500D01*
X-4935227Y14024500D01*
X-4810935Y14060994D01*
X-4810927Y14060997D01*
X-4701952Y14131032D01*
X-4701950Y14131034D01*
X-4695646Y14138309D01*
X-4665908Y14153193D01*
X-4662810Y14153304D01*
X-4347821Y14153304D01*
X-4317097Y14140578D01*
X-4308786Y14128937D01*
X-4259827Y14028791D01*
X-4259826Y14028789D01*
X-4171210Y13940173D01*
X-4145336Y13927524D01*
X-4123324Y13902597D01*
X-4125385Y13869405D01*
X-4150312Y13847393D01*
X-4150753Y13847244D01*
X-4258485Y13811546D01*
X-4402730Y13722573D01*
X-4522573Y13602730D01*
X-4611546Y13458485D01*
X-4664855Y13297607D01*
X-4664856Y13297601D01*
X-4675000Y13198311D01*
X-4675000Y13175000D01*
X-2725001Y13175000D01*
X-2725001Y13198310D01*
X-2735143Y13297600D01*
X-2735144Y13297607D01*
X-2788453Y13458485D01*
X-2877426Y13602730D01*
X-2997269Y13722573D01*
X-3141515Y13811546D01*
X-3141513Y13811546D01*
X-3249246Y13847244D01*
X-3274407Y13868988D01*
X-3276824Y13902156D01*
X-3255080Y13927317D01*
X-3254663Y13927524D01*
X-3228789Y13940173D01*
X-3228789Y13940174D01*
X-3140172Y14028791D01*
X-3085134Y14141373D01*
X-3085133Y14141377D01*
X-3074500Y14214355D01*
X-3074500Y14735644D01*
X-3085133Y14808622D01*
X-3085134Y14808626D01*
X-3140172Y14921208D01*
X-3140174Y14921211D01*
X-3228789Y15009826D01*
X-3228791Y15009827D01*
X-3341377Y15064867D01*
X-3344603Y15065864D01*
X-3344330Y15066746D01*
X-3369678Y15081839D01*
X-3378304Y15107824D01*
X-3378304Y16249999D01*
X3844508Y16249999D01*
X3864354Y16124695D01*
X3864354Y16124694D01*
X3921948Y16011659D01*
X3981353Y15952255D01*
X3994079Y15921531D01*
X3994079Y5105017D01*
X3983466Y5076564D01*
X3932893Y5018199D01*
X3932893Y5018198D01*
X3932891Y5018196D01*
X3879078Y4900361D01*
X3860642Y4772136D01*
X3879078Y4643910D01*
X3932891Y4526075D01*
X3932892Y4526073D01*
X4017727Y4428168D01*
X4126702Y4358133D01*
X4126710Y4358130D01*
X4251002Y4321636D01*
X4251003Y4321636D01*
X4380548Y4321636D01*
X4504839Y4358130D01*
X4504847Y4358133D01*
X4613822Y4428168D01*
X4613823Y4428168D01*
X4698657Y4526073D01*
X4698658Y4526075D01*
X4702947Y4535468D01*
X4752472Y4643910D01*
X4770908Y4772136D01*
X4752472Y4900362D01*
X4698657Y5018199D01*
X4648746Y5075799D01*
X4638245Y5107352D01*
X4653130Y5137089D01*
X4684684Y5147591D01*
X4705073Y5140805D01*
X4757225Y5107290D01*
X4757227Y5107289D01*
X4757229Y5107288D01*
X4881521Y5070794D01*
X4881522Y5070794D01*
X5011067Y5070794D01*
X5135358Y5107288D01*
X5135366Y5107291D01*
X5244341Y5177326D01*
X5244342Y5177326D01*
X5329176Y5275231D01*
X5329177Y5275233D01*
X5333466Y5284626D01*
X5382991Y5393068D01*
X5401427Y5521294D01*
X5396518Y5555435D01*
X5401897Y5583343D01*
X5441358Y5651695D01*
X5441362Y5651702D01*
X5507854Y5812233D01*
X5552824Y5980070D01*
X5554218Y5990654D01*
X5575500Y6152335D01*
X5575501Y6152340D01*
X5575500Y6239219D01*
X5575500Y12749999D01*
X6094508Y12749999D01*
X6114354Y12624695D01*
X6114354Y12624694D01*
X6171948Y12511659D01*
X6261659Y12421948D01*
X6374694Y12364354D01*
X6499999Y12344508D01*
X6500000Y12344508D01*
X6500001Y12344508D01*
X6625304Y12364354D01*
X6625305Y12364354D01*
X6738340Y12421948D01*
X6828051Y12511659D01*
X6885645Y12624694D01*
X6885645Y12624695D01*
X6885646Y12624696D01*
X6905492Y12750000D01*
X6885646Y12875304D01*
X6830321Y12983885D01*
X6826498Y12991389D01*
X6827942Y12992124D01*
X6821696Y13011205D01*
X6821696Y14988794D01*
X6827894Y15007899D01*
X6826498Y15008611D01*
X6885645Y15124694D01*
X6885645Y15124695D01*
X6885646Y15124696D01*
X6905492Y15250000D01*
X6885646Y15375304D01*
X6828050Y15488342D01*
X6738342Y15578050D01*
X6625304Y15635646D01*
X6519847Y15652348D01*
X6500001Y15655492D01*
X6499999Y15655492D01*
X6480153Y15652348D01*
X6374696Y15635646D01*
X6374694Y15635645D01*
X6261659Y15578051D01*
X6171948Y15488340D01*
X6114354Y15375305D01*
X6114354Y15375304D01*
X6094508Y15250000D01*
X6094508Y15249999D01*
X6114354Y15124695D01*
X6114354Y15124694D01*
X6173502Y15008611D01*
X6172105Y15007899D01*
X6178304Y14988794D01*
X6178304Y13011205D01*
X6172057Y12992124D01*
X6173502Y12991389D01*
X6114354Y12875305D01*
X6114354Y12875304D01*
X6094508Y12750000D01*
X6094508Y12749999D01*
X5575500Y12749999D01*
X5575500Y16246221D01*
X5580236Y16265947D01*
X5635645Y16374694D01*
X5635645Y16374695D01*
X5635646Y16374696D01*
X5655492Y16500000D01*
X5635646Y16625304D01*
X5578050Y16738342D01*
X5488342Y16828050D01*
X5375304Y16885646D01*
X5269847Y16902348D01*
X5250001Y16905492D01*
X5249999Y16905492D01*
X5230153Y16902348D01*
X5124696Y16885646D01*
X5124694Y16885645D01*
X5011659Y16828051D01*
X4921948Y16738340D01*
X4864354Y16625305D01*
X4864354Y16625304D01*
X4844508Y16500000D01*
X4844508Y16499999D01*
X4864354Y16374695D01*
X4864354Y16374694D01*
X4919764Y16265947D01*
X4924500Y16246221D01*
X4924500Y6241344D01*
X4924291Y6237086D01*
X4911960Y6111876D01*
X4910298Y6103522D01*
X4876062Y5990654D01*
X4854966Y5964947D01*
X4846725Y5961576D01*
X4757225Y5935298D01*
X4757222Y5935296D01*
X4704412Y5901357D01*
X4671685Y5895452D01*
X4644369Y5914418D01*
X4637471Y5937909D01*
X4637471Y16132798D01*
X4638006Y16139595D01*
X4655492Y16249999D01*
X4655492Y16250000D01*
X4654049Y16259108D01*
X4635646Y16375304D01*
X4578050Y16488342D01*
X4488342Y16578050D01*
X4375304Y16635646D01*
X4269847Y16652348D01*
X4250001Y16655492D01*
X4249999Y16655492D01*
X4230153Y16652348D01*
X4124696Y16635646D01*
X4124694Y16635645D01*
X4011659Y16578051D01*
X3921948Y16488340D01*
X3864354Y16375305D01*
X3864354Y16375304D01*
X3844508Y16250000D01*
X3844508Y16249999D01*
X-3378304Y16249999D01*
X-3378304Y19348751D01*
X-3365578Y19379475D01*
X-3079475Y19665578D01*
X-3048751Y19678304D01*
X5948752Y19678304D01*
X5979475Y19665578D01*
G37*
%TD.AperFunction*%
%TD*%
M02*
