%TF.GenerationSoftware,KiCad,Pcbnew,7.0.11-7.0.11~ubuntu22.04.1*%
%TF.CreationDate,2024-05-19T21:46:35+02:00*%
%TF.ProjectId,m.2_usd,6d2e325f-7573-4642-9e6b-696361645f70,rev?*%
%TF.SameCoordinates,Original*%
%TF.FileFunction,Legend,Top*%
%TF.FilePolarity,Positive*%
%FSLAX46Y46*%
G04 Gerber Fmt 4.6, Leading zero omitted, Abs format (unit mm)*
G04 Created by KiCad (PCBNEW 7.0.11-7.0.11~ubuntu22.04.1) date 2024-05-19 21:46:35*
%MOMM*%
%LPD*%
G01*
G04 APERTURE LIST*
%ADD10C,0.100000*%
%ADD11C,0.150000*%
%ADD12C,0.010000*%
%ADD13C,0.152400*%
%ADD14C,0.508000*%
G04 APERTURE END LIST*
D10*
X8412419Y21262783D02*
X7412419Y21262783D01*
X7412419Y21262783D02*
X8126704Y21596116D01*
X8126704Y21596116D02*
X7412419Y21929449D01*
X7412419Y21929449D02*
X8412419Y21929449D01*
X8317180Y22405640D02*
X8364800Y22453259D01*
X8364800Y22453259D02*
X8412419Y22405640D01*
X8412419Y22405640D02*
X8364800Y22358021D01*
X8364800Y22358021D02*
X8317180Y22405640D01*
X8317180Y22405640D02*
X8412419Y22405640D01*
X8412419Y22881830D02*
X7412419Y22881830D01*
X7412419Y22881830D02*
X8126704Y23215163D01*
X8126704Y23215163D02*
X7412419Y23548496D01*
X7412419Y23548496D02*
X8412419Y23548496D01*
X8317180Y24024687D02*
X8364800Y24072306D01*
X8364800Y24072306D02*
X8412419Y24024687D01*
X8412419Y24024687D02*
X8364800Y23977068D01*
X8364800Y23977068D02*
X8317180Y24024687D01*
X8317180Y24024687D02*
X8412419Y24024687D01*
X7507657Y25215163D02*
X7460038Y25262782D01*
X7460038Y25262782D02*
X7412419Y25358020D01*
X7412419Y25358020D02*
X7412419Y25596115D01*
X7412419Y25596115D02*
X7460038Y25691353D01*
X7460038Y25691353D02*
X7507657Y25738972D01*
X7507657Y25738972D02*
X7602895Y25786591D01*
X7602895Y25786591D02*
X7698133Y25786591D01*
X7698133Y25786591D02*
X7840990Y25738972D01*
X7840990Y25738972D02*
X8412419Y25167544D01*
X8412419Y25167544D02*
X8412419Y25786591D01*
X7412419Y26405639D02*
X7412419Y26500877D01*
X7412419Y26500877D02*
X7460038Y26596115D01*
X7460038Y26596115D02*
X7507657Y26643734D01*
X7507657Y26643734D02*
X7602895Y26691353D01*
X7602895Y26691353D02*
X7793371Y26738972D01*
X7793371Y26738972D02*
X8031466Y26738972D01*
X8031466Y26738972D02*
X8221942Y26691353D01*
X8221942Y26691353D02*
X8317180Y26643734D01*
X8317180Y26643734D02*
X8364800Y26596115D01*
X8364800Y26596115D02*
X8412419Y26500877D01*
X8412419Y26500877D02*
X8412419Y26405639D01*
X8412419Y26405639D02*
X8364800Y26310401D01*
X8364800Y26310401D02*
X8317180Y26262782D01*
X8317180Y26262782D02*
X8221942Y26215163D01*
X8221942Y26215163D02*
X8031466Y26167544D01*
X8031466Y26167544D02*
X7793371Y26167544D01*
X7793371Y26167544D02*
X7602895Y26215163D01*
X7602895Y26215163D02*
X7507657Y26262782D01*
X7507657Y26262782D02*
X7460038Y26310401D01*
X7460038Y26310401D02*
X7412419Y26405639D01*
X7507657Y27119925D02*
X7460038Y27167544D01*
X7460038Y27167544D02*
X7412419Y27262782D01*
X7412419Y27262782D02*
X7412419Y27500877D01*
X7412419Y27500877D02*
X7460038Y27596115D01*
X7460038Y27596115D02*
X7507657Y27643734D01*
X7507657Y27643734D02*
X7602895Y27691353D01*
X7602895Y27691353D02*
X7698133Y27691353D01*
X7698133Y27691353D02*
X7840990Y27643734D01*
X7840990Y27643734D02*
X8412419Y27072306D01*
X8412419Y27072306D02*
X8412419Y27691353D01*
X7745752Y28548496D02*
X8412419Y28548496D01*
X7364800Y28310401D02*
X8079085Y28072306D01*
X8079085Y28072306D02*
X8079085Y28691353D01*
X10022419Y10167542D02*
X9022419Y10167542D01*
X9022419Y10167542D02*
X9736704Y10500875D01*
X9736704Y10500875D02*
X9022419Y10834208D01*
X9022419Y10834208D02*
X10022419Y10834208D01*
X9927180Y11310399D02*
X9974800Y11358018D01*
X9974800Y11358018D02*
X10022419Y11310399D01*
X10022419Y11310399D02*
X9974800Y11262780D01*
X9974800Y11262780D02*
X9927180Y11310399D01*
X9927180Y11310399D02*
X10022419Y11310399D01*
X9117657Y11738970D02*
X9070038Y11786589D01*
X9070038Y11786589D02*
X9022419Y11881827D01*
X9022419Y11881827D02*
X9022419Y12119922D01*
X9022419Y12119922D02*
X9070038Y12215160D01*
X9070038Y12215160D02*
X9117657Y12262779D01*
X9117657Y12262779D02*
X9212895Y12310398D01*
X9212895Y12310398D02*
X9308133Y12310398D01*
X9308133Y12310398D02*
X9450990Y12262779D01*
X9450990Y12262779D02*
X10022419Y11691351D01*
X10022419Y11691351D02*
X10022419Y12310398D01*
X9355752Y13358018D02*
X9355752Y13738970D01*
X9022419Y13500875D02*
X9879561Y13500875D01*
X9879561Y13500875D02*
X9974800Y13548494D01*
X9974800Y13548494D02*
X10022419Y13643732D01*
X10022419Y13643732D02*
X10022419Y13738970D01*
X10022419Y14215161D02*
X9974800Y14119923D01*
X9974800Y14119923D02*
X9927180Y14072304D01*
X9927180Y14072304D02*
X9831942Y14024685D01*
X9831942Y14024685D02*
X9546228Y14024685D01*
X9546228Y14024685D02*
X9450990Y14072304D01*
X9450990Y14072304D02*
X9403371Y14119923D01*
X9403371Y14119923D02*
X9355752Y14215161D01*
X9355752Y14215161D02*
X9355752Y14358018D01*
X9355752Y14358018D02*
X9403371Y14453256D01*
X9403371Y14453256D02*
X9450990Y14500875D01*
X9450990Y14500875D02*
X9546228Y14548494D01*
X9546228Y14548494D02*
X9831942Y14548494D01*
X9831942Y14548494D02*
X9927180Y14500875D01*
X9927180Y14500875D02*
X9974800Y14453256D01*
X9974800Y14453256D02*
X10022419Y14358018D01*
X10022419Y14358018D02*
X10022419Y14215161D01*
X10022419Y15738971D02*
X9355752Y15738971D01*
X9450990Y15738971D02*
X9403371Y15786590D01*
X9403371Y15786590D02*
X9355752Y15881828D01*
X9355752Y15881828D02*
X9355752Y16024685D01*
X9355752Y16024685D02*
X9403371Y16119923D01*
X9403371Y16119923D02*
X9498609Y16167542D01*
X9498609Y16167542D02*
X10022419Y16167542D01*
X9498609Y16167542D02*
X9403371Y16215161D01*
X9403371Y16215161D02*
X9355752Y16310399D01*
X9355752Y16310399D02*
X9355752Y16453256D01*
X9355752Y16453256D02*
X9403371Y16548495D01*
X9403371Y16548495D02*
X9498609Y16596114D01*
X9498609Y16596114D02*
X10022419Y16596114D01*
X10022419Y17072304D02*
X9355752Y17072304D01*
X9022419Y17072304D02*
X9070038Y17024685D01*
X9070038Y17024685D02*
X9117657Y17072304D01*
X9117657Y17072304D02*
X9070038Y17119923D01*
X9070038Y17119923D02*
X9022419Y17072304D01*
X9022419Y17072304D02*
X9117657Y17072304D01*
X9974800Y17977065D02*
X10022419Y17881827D01*
X10022419Y17881827D02*
X10022419Y17691351D01*
X10022419Y17691351D02*
X9974800Y17596113D01*
X9974800Y17596113D02*
X9927180Y17548494D01*
X9927180Y17548494D02*
X9831942Y17500875D01*
X9831942Y17500875D02*
X9546228Y17500875D01*
X9546228Y17500875D02*
X9450990Y17548494D01*
X9450990Y17548494D02*
X9403371Y17596113D01*
X9403371Y17596113D02*
X9355752Y17691351D01*
X9355752Y17691351D02*
X9355752Y17881827D01*
X9355752Y17881827D02*
X9403371Y17977065D01*
X10022419Y18405637D02*
X9355752Y18405637D01*
X9546228Y18405637D02*
X9450990Y18453256D01*
X9450990Y18453256D02*
X9403371Y18500875D01*
X9403371Y18500875D02*
X9355752Y18596113D01*
X9355752Y18596113D02*
X9355752Y18691351D01*
X10022419Y19167542D02*
X9974800Y19072304D01*
X9974800Y19072304D02*
X9927180Y19024685D01*
X9927180Y19024685D02*
X9831942Y18977066D01*
X9831942Y18977066D02*
X9546228Y18977066D01*
X9546228Y18977066D02*
X9450990Y19024685D01*
X9450990Y19024685D02*
X9403371Y19072304D01*
X9403371Y19072304D02*
X9355752Y19167542D01*
X9355752Y19167542D02*
X9355752Y19310399D01*
X9355752Y19310399D02*
X9403371Y19405637D01*
X9403371Y19405637D02*
X9450990Y19453256D01*
X9450990Y19453256D02*
X9546228Y19500875D01*
X9546228Y19500875D02*
X9831942Y19500875D01*
X9831942Y19500875D02*
X9927180Y19453256D01*
X9927180Y19453256D02*
X9974800Y19405637D01*
X9974800Y19405637D02*
X10022419Y19310399D01*
X10022419Y19310399D02*
X10022419Y19167542D01*
X9974800Y20643733D02*
X10022419Y20786590D01*
X10022419Y20786590D02*
X10022419Y21024685D01*
X10022419Y21024685D02*
X9974800Y21119923D01*
X9974800Y21119923D02*
X9927180Y21167542D01*
X9927180Y21167542D02*
X9831942Y21215161D01*
X9831942Y21215161D02*
X9736704Y21215161D01*
X9736704Y21215161D02*
X9641466Y21167542D01*
X9641466Y21167542D02*
X9593847Y21119923D01*
X9593847Y21119923D02*
X9546228Y21024685D01*
X9546228Y21024685D02*
X9498609Y20834209D01*
X9498609Y20834209D02*
X9450990Y20738971D01*
X9450990Y20738971D02*
X9403371Y20691352D01*
X9403371Y20691352D02*
X9308133Y20643733D01*
X9308133Y20643733D02*
X9212895Y20643733D01*
X9212895Y20643733D02*
X9117657Y20691352D01*
X9117657Y20691352D02*
X9070038Y20738971D01*
X9070038Y20738971D02*
X9022419Y20834209D01*
X9022419Y20834209D02*
X9022419Y21072304D01*
X9022419Y21072304D02*
X9070038Y21215161D01*
X10022419Y21643733D02*
X9022419Y21643733D01*
X9022419Y21643733D02*
X9022419Y21881828D01*
X9022419Y21881828D02*
X9070038Y22024685D01*
X9070038Y22024685D02*
X9165276Y22119923D01*
X9165276Y22119923D02*
X9260514Y22167542D01*
X9260514Y22167542D02*
X9450990Y22215161D01*
X9450990Y22215161D02*
X9593847Y22215161D01*
X9593847Y22215161D02*
X9784323Y22167542D01*
X9784323Y22167542D02*
X9879561Y22119923D01*
X9879561Y22119923D02*
X9974800Y22024685D01*
X9974800Y22024685D02*
X10022419Y21881828D01*
X10022419Y21881828D02*
X10022419Y21643733D01*
X10022419Y23834209D02*
X9498609Y23834209D01*
X9498609Y23834209D02*
X9403371Y23786590D01*
X9403371Y23786590D02*
X9355752Y23691352D01*
X9355752Y23691352D02*
X9355752Y23500876D01*
X9355752Y23500876D02*
X9403371Y23405638D01*
X9974800Y23834209D02*
X10022419Y23738971D01*
X10022419Y23738971D02*
X10022419Y23500876D01*
X10022419Y23500876D02*
X9974800Y23405638D01*
X9974800Y23405638D02*
X9879561Y23358019D01*
X9879561Y23358019D02*
X9784323Y23358019D01*
X9784323Y23358019D02*
X9689085Y23405638D01*
X9689085Y23405638D02*
X9641466Y23500876D01*
X9641466Y23500876D02*
X9641466Y23738971D01*
X9641466Y23738971D02*
X9593847Y23834209D01*
X10022419Y24738971D02*
X9022419Y24738971D01*
X9974800Y24738971D02*
X10022419Y24643733D01*
X10022419Y24643733D02*
X10022419Y24453257D01*
X10022419Y24453257D02*
X9974800Y24358019D01*
X9974800Y24358019D02*
X9927180Y24310400D01*
X9927180Y24310400D02*
X9831942Y24262781D01*
X9831942Y24262781D02*
X9546228Y24262781D01*
X9546228Y24262781D02*
X9450990Y24310400D01*
X9450990Y24310400D02*
X9403371Y24358019D01*
X9403371Y24358019D02*
X9355752Y24453257D01*
X9355752Y24453257D02*
X9355752Y24643733D01*
X9355752Y24643733D02*
X9403371Y24738971D01*
X10022419Y25643733D02*
X9498609Y25643733D01*
X9498609Y25643733D02*
X9403371Y25596114D01*
X9403371Y25596114D02*
X9355752Y25500876D01*
X9355752Y25500876D02*
X9355752Y25310400D01*
X9355752Y25310400D02*
X9403371Y25215162D01*
X9974800Y25643733D02*
X10022419Y25548495D01*
X10022419Y25548495D02*
X10022419Y25310400D01*
X10022419Y25310400D02*
X9974800Y25215162D01*
X9974800Y25215162D02*
X9879561Y25167543D01*
X9879561Y25167543D02*
X9784323Y25167543D01*
X9784323Y25167543D02*
X9689085Y25215162D01*
X9689085Y25215162D02*
X9641466Y25310400D01*
X9641466Y25310400D02*
X9641466Y25548495D01*
X9641466Y25548495D02*
X9593847Y25643733D01*
X9355752Y26119924D02*
X10355752Y26119924D01*
X9403371Y26119924D02*
X9355752Y26215162D01*
X9355752Y26215162D02*
X9355752Y26405638D01*
X9355752Y26405638D02*
X9403371Y26500876D01*
X9403371Y26500876D02*
X9450990Y26548495D01*
X9450990Y26548495D02*
X9546228Y26596114D01*
X9546228Y26596114D02*
X9831942Y26596114D01*
X9831942Y26596114D02*
X9927180Y26548495D01*
X9927180Y26548495D02*
X9974800Y26500876D01*
X9974800Y26500876D02*
X10022419Y26405638D01*
X10022419Y26405638D02*
X10022419Y26215162D01*
X10022419Y26215162D02*
X9974800Y26119924D01*
X9355752Y26881829D02*
X9355752Y27262781D01*
X9022419Y27024686D02*
X9879561Y27024686D01*
X9879561Y27024686D02*
X9974800Y27072305D01*
X9974800Y27072305D02*
X10022419Y27167543D01*
X10022419Y27167543D02*
X10022419Y27262781D01*
X9974800Y27977067D02*
X10022419Y27881829D01*
X10022419Y27881829D02*
X10022419Y27691353D01*
X10022419Y27691353D02*
X9974800Y27596115D01*
X9974800Y27596115D02*
X9879561Y27548496D01*
X9879561Y27548496D02*
X9498609Y27548496D01*
X9498609Y27548496D02*
X9403371Y27596115D01*
X9403371Y27596115D02*
X9355752Y27691353D01*
X9355752Y27691353D02*
X9355752Y27881829D01*
X9355752Y27881829D02*
X9403371Y27977067D01*
X9403371Y27977067D02*
X9498609Y28024686D01*
X9498609Y28024686D02*
X9593847Y28024686D01*
X9593847Y28024686D02*
X9689085Y27548496D01*
X10022419Y28453258D02*
X9355752Y28453258D01*
X9546228Y28453258D02*
X9450990Y28500877D01*
X9450990Y28500877D02*
X9403371Y28548496D01*
X9403371Y28548496D02*
X9355752Y28643734D01*
X9355752Y28643734D02*
X9355752Y28738972D01*
D11*
X5445180Y21483333D02*
X4730895Y21483333D01*
X4730895Y21483333D02*
X4588038Y21530952D01*
X4588038Y21530952D02*
X4492800Y21626190D01*
X4492800Y21626190D02*
X4445180Y21769047D01*
X4445180Y21769047D02*
X4445180Y21864285D01*
X5349942Y21054761D02*
X5397561Y21007142D01*
X5397561Y21007142D02*
X5445180Y20911904D01*
X5445180Y20911904D02*
X5445180Y20673809D01*
X5445180Y20673809D02*
X5397561Y20578571D01*
X5397561Y20578571D02*
X5349942Y20530952D01*
X5349942Y20530952D02*
X5254704Y20483333D01*
X5254704Y20483333D02*
X5159466Y20483333D01*
X5159466Y20483333D02*
X5016609Y20530952D01*
X5016609Y20530952D02*
X4445180Y21102380D01*
X4445180Y21102380D02*
X4445180Y20483333D01*
D12*
%TO.C,J1*%
X-10000000Y4000000D02*
X10000000Y4000000D01*
D13*
%TO.C,J2*%
X3927900Y22329500D02*
X2686940Y22329500D01*
X14860Y22329500D02*
X-5613061Y22329500D01*
X-8285141Y22329500D02*
X-10727900Y22329500D01*
X-10727900Y22329500D02*
X-10727900Y7470500D01*
X3927900Y7470500D02*
X3927900Y22329500D01*
X2686940Y7470500D02*
X3927900Y7470500D01*
X-5613061Y7470500D02*
X14860Y7470500D01*
X-10727900Y7470500D02*
X-8285141Y7470500D01*
D14*
X-868100Y24107500D02*
G75*
G03*
X-1630100Y24107500I-381000J0D01*
G01*
X-1630100Y24107500D02*
G75*
G03*
X-868100Y24107500I381000J0D01*
G01*
%TD*%
M02*
